<svg width="180" height="47" viewBox="0 0 180 47" fill="none" xmlns="http://www.w3.org/2000/svg">
<path d="M40 20C40 31.0457 31.0457 40 20 40C8.95431 40 0 31.0457 0 20C0 8.95431 8.95431 0 20 0C31.0457 0 40 8.95431 40 20Z" fill="#384B59"/>
<path d="M20.56 6.7C20.5733 6.76667 20.5733 6.83333 20.56 6.9C20.56 6.96667 20.54 7.04 20.5 7.12C20.4467 7.30667 20.3867 7.47333 20.32 7.62C20.24 7.80667 20.14 7.96667 20.02 8.1C19.9667 8.18 19.9133 8.26 19.86 8.34C19.82 8.40667 19.78 8.47333 19.74 8.54L19.48 8.88L16.92 12.58L16.46 13.16V18.48C16.4333 18.5467 16.42 18.6133 16.42 18.68C16.42 18.7467 16.4133 18.82 16.4 18.9C16.3733 18.9667 16.3533 19.0333 16.34 19.1C16.3267 19.1533 16.3067 19.2133 16.28 19.28C16.2533 19.3333 16.24 19.3733 16.24 19.4C16.2267 19.4267 16.2133 19.4467 16.2 19.46C16.2 19.4733 16.1933 19.4933 16.18 19.52C16.1 19.6533 15.9867 19.7733 15.84 19.88C15.5467 20.0267 15.2133 20.06 14.84 19.98C14.6267 19.9533 14.4667 19.8867 14.36 19.78C14.2933 19.74 14.24 19.6933 14.2 19.64C14.16 19.5867 14.12 19.5267 14.08 19.46C14.0533 19.38 14.0267 19.3067 14 19.24C13.9733 19.1733 13.9533 19.1067 13.94 19.04C13.9133 18.9733 13.9 18.9133 13.9 18.86C13.9 18.7933 13.9 18.7333 13.9 18.68V13.22L13.46 12.54L10.86 8.86L10.64 8.5C10.56 8.38 10.46 8.24 10.34 8.08C10.2333 7.93333 10.14 7.77333 10.06 7.6C10.0067 7.52 9.96 7.44 9.92 7.36C9.89333 7.26667 9.86667 7.17333 9.84 7.08C9.8 6.94667 9.79333 6.81333 9.82 6.68C9.86 6.50667 9.94 6.36 10.06 6.24C10.1933 6.12 10.3333 6.02667 10.48 5.96C10.6667 5.82667 10.88 5.77333 11.12 5.8C11.2667 5.8 11.3933 5.82667 11.5 5.88C11.6067 5.93333 11.7133 5.99333 11.82 6.06C11.94 6.15333 12.0533 6.25333 12.16 6.36C12.28 6.46667 12.3867 6.58 12.48 6.7C12.5867 6.83333 12.6867 6.96 12.78 7.08C12.8733 7.18667 12.9667 7.31333 13.06 7.46L13.12 7.54C13.44 7.96667 13.74 8.38 14.02 8.78C14.3 9.16667 14.5933 9.58667 14.9 10.04C14.9267 10.0667 14.9667 10.12 15.02 10.2C15.0733 10.28 15.1333 10.3733 15.2 10.48C15.2533 10.3867 15.3 10.3067 15.34 10.24C15.3933 10.16 15.4333 10.1067 15.46 10.08C15.7667 9.62667 16.06 9.2 16.34 8.8C16.62 8.4 16.92 7.98667 17.24 7.56L17.28 7.48C17.3867 7.36 17.48 7.24 17.56 7.12C17.6533 6.98667 17.7533 6.85333 17.86 6.72C18.0333 6.48 18.2667 6.27333 18.56 6.1C18.7733 5.95333 18.9933 5.86 19.22 5.82C19.4733 5.79333 19.6933 5.84667 19.88 5.98C19.96 6.03333 20.0333 6.08 20.1 6.12C20.18 6.16 20.2467 6.20667 20.3 6.26C20.4067 6.38 20.4933 6.52667 20.56 6.7Z" fill="white"/>
<path d="M3.953 24.768C3.86433 24.712 3.764 24.6677 3.652 24.635C3.54467 24.6023 3.43267 24.572 3.316 24.544C3.204 24.516 3.09433 24.4857 2.987 24.453C2.87967 24.4157 2.78167 24.3643 2.693 24.299C2.50167 24.1543 2.38967 23.977 2.357 23.767C2.329 23.5523 2.37567 23.3377 2.497 23.123C2.56233 23.011 2.64867 22.92 2.756 22.85C2.86333 22.7753 2.98 22.7193 3.106 22.682C3.23667 22.64 3.36967 22.6167 3.505 22.612C3.64033 22.6073 3.76867 22.6143 3.89 22.633C3.96933 22.647 4.05333 22.668 4.142 22.696C4.23067 22.7193 4.31233 22.752 4.387 22.794C4.46633 22.836 4.53633 22.8897 4.597 22.955C4.66233 23.0157 4.709 23.0927 4.737 23.186C4.75567 23.2467 4.758 23.305 4.744 23.361C4.73467 23.417 4.71133 23.4637 4.674 23.501C4.64133 23.5383 4.597 23.5663 4.541 23.585C4.48967 23.6037 4.43367 23.6083 4.373 23.599C4.303 23.585 4.23767 23.564 4.177 23.536C4.11633 23.508 4.05567 23.4777 3.995 23.445C3.93433 23.4123 3.87133 23.3843 3.806 23.361C3.74533 23.3377 3.68 23.326 3.61 23.326C3.50267 23.3213 3.414 23.34 3.344 23.382C3.274 23.424 3.225 23.4753 3.197 23.536C3.17367 23.5967 3.176 23.662 3.204 23.732C3.23667 23.802 3.302 23.8627 3.4 23.914C3.48867 23.9607 3.58667 23.998 3.694 24.026C3.80133 24.054 3.90633 24.082 4.009 24.11C4.11633 24.138 4.219 24.1707 4.317 24.208C4.41967 24.2453 4.51067 24.2967 4.59 24.362C4.744 24.488 4.83733 24.635 4.87 24.803C4.90733 24.971 4.898 25.1367 4.842 25.3C4.786 25.4633 4.688 25.608 4.548 25.734C4.41267 25.86 4.25167 25.944 4.065 25.986C3.92967 26.014 3.78267 26.028 3.624 26.028C3.47 26.028 3.316 26.0117 3.162 25.979C3.01267 25.9463 2.868 25.895 2.728 25.825C2.59267 25.755 2.47833 25.6663 2.385 25.559C2.31967 25.4843 2.28467 25.4003 2.28 25.307C2.28 25.209 2.29867 25.125 2.336 25.055C2.378 24.9803 2.43633 24.929 2.511 24.901C2.58567 24.873 2.66967 24.8893 2.763 24.95C2.83767 25.0013 2.92633 25.0527 3.029 25.104C3.13167 25.1507 3.23433 25.188 3.337 25.216C3.43967 25.244 3.53767 25.258 3.631 25.258C3.729 25.258 3.813 25.237 3.883 25.195C3.98567 25.1297 4.03933 25.055 4.044 24.971C4.04867 24.8823 4.01833 24.8147 3.953 24.768ZM8.06271 23.305C8.10004 23.3703 8.11871 23.4403 8.11871 23.515C8.12338 23.5897 8.10704 23.6597 8.06971 23.725C8.02771 23.809 7.96704 23.8673 7.88771 23.9C7.81304 23.928 7.72904 23.9303 7.63571 23.907C7.59371 23.8977 7.55638 23.8813 7.52371 23.858C7.49104 23.8347 7.45604 23.8113 7.41871 23.788C7.38604 23.76 7.34638 23.7343 7.29971 23.711C7.25771 23.6877 7.20171 23.6713 7.13171 23.662C7.06171 23.6527 6.98471 23.6527 6.90071 23.662C6.82138 23.6713 6.74904 23.69 6.68371 23.718C6.58104 23.7693 6.49938 23.8487 6.43871 23.956C6.37804 24.0587 6.33838 24.1707 6.31971 24.292C6.30104 24.4087 6.30338 24.5277 6.32671 24.649C6.35471 24.7703 6.40604 24.873 6.48071 24.957C6.53671 25.0223 6.60904 25.076 6.69771 25.118C6.79104 25.16 6.87971 25.1857 6.96371 25.195C7.04304 25.2043 7.12238 25.2043 7.20171 25.195C7.28104 25.181 7.35804 25.1623 7.43271 25.139C7.48871 25.1157 7.55171 25.0853 7.62171 25.048C7.69171 25.006 7.75938 24.9803 7.82471 24.971C7.90871 24.971 7.97404 24.9943 8.02071 25.041C8.06738 25.083 8.10004 25.1367 8.11871 25.202C8.13738 25.2627 8.13971 25.328 8.12571 25.398C8.11638 25.468 8.09071 25.5287 8.04871 25.58C7.99271 25.65 7.91338 25.7177 7.81071 25.783C7.70804 25.8437 7.61004 25.888 7.51671 25.916C7.40471 25.9533 7.27871 25.9743 7.13871 25.979C7.00338 25.9837 6.87504 25.979 6.75371 25.965C6.69771 25.9557 6.63938 25.944 6.57871 25.93C6.51804 25.916 6.45971 25.8997 6.40371 25.881C6.19838 25.8063 6.02571 25.7013 5.88571 25.566C5.75038 25.426 5.64538 25.2697 5.57071 25.097C5.50071 24.9243 5.46104 24.74 5.45171 24.544C5.44238 24.348 5.46571 24.1543 5.52171 23.963C5.57304 23.781 5.63604 23.627 5.71071 23.501C5.79004 23.375 5.88104 23.2723 5.98371 23.193C6.09104 23.109 6.21004 23.0437 6.34071 22.997C6.47138 22.9457 6.61604 22.9013 6.77471 22.864C6.93804 22.8313 7.11071 22.8313 7.29271 22.864C7.47471 22.8967 7.63804 22.9573 7.78271 23.046C7.89471 23.1067 7.98804 23.193 8.06271 23.305ZM11.4221 24.621C11.4268 24.7143 11.4291 24.8123 11.4291 24.915C11.4291 25.013 11.4268 25.104 11.4221 25.188C11.4174 25.314 11.4104 25.4307 11.4011 25.538C11.3918 25.6407 11.3731 25.7293 11.3451 25.804C11.3171 25.874 11.2728 25.9277 11.2121 25.965C11.1561 25.9977 11.0768 26.007 10.9741 25.993C10.8668 25.979 10.7898 25.9277 10.7431 25.839C10.6964 25.7503 10.6638 25.65 10.6451 25.538C10.6311 25.4213 10.6264 25.3047 10.6311 25.188C10.6358 25.0713 10.6358 24.9803 10.6311 24.915C10.6264 24.8123 10.6218 24.6957 10.6171 24.565C10.6171 24.4297 10.6031 24.3037 10.5751 24.187C10.5518 24.0657 10.5098 23.963 10.4491 23.879C10.3884 23.795 10.2974 23.7507 10.1761 23.746C10.0221 23.7367 9.90311 23.7483 9.81911 23.781C9.73978 23.8137 9.68144 23.8627 9.64411 23.928C9.60678 23.9887 9.58344 24.0633 9.57411 24.152C9.56944 24.2407 9.56011 24.3363 9.54611 24.439L9.53911 24.712V25.223C9.53911 25.307 9.53678 25.3957 9.53211 25.489C9.53211 25.5777 9.51811 25.6593 9.49011 25.734C9.46211 25.8087 9.41778 25.8717 9.35711 25.923C9.30111 25.9743 9.21711 26 9.10511 26C8.96511 26 8.86011 25.9557 8.79011 25.867C8.72478 25.7737 8.69211 25.6593 8.69211 25.524V21.499C8.69211 21.471 8.69211 21.4453 8.69211 21.422C8.69678 21.394 8.70144 21.366 8.70611 21.338C8.71544 21.31 8.72244 21.2843 8.72711 21.261C8.73178 21.233 8.73878 21.2073 8.74811 21.184C8.76211 21.1373 8.78544 21.1023 8.81811 21.079C8.84144 21.0557 8.86478 21.037 8.88811 21.023C8.91144 21.009 8.93711 20.9997 8.96511 20.995C8.98844 20.9903 9.01411 20.988 9.04211 20.988C9.07011 20.9833 9.09811 20.981 9.12611 20.981C9.19611 20.981 9.26378 21.002 9.32911 21.044C9.35711 21.0627 9.38278 21.0837 9.40611 21.107C9.42944 21.1257 9.44811 21.1537 9.46211 21.191C9.49944 21.2797 9.51811 21.3637 9.51811 21.443C9.52278 21.4663 9.52511 21.5013 9.52511 21.548C9.52978 21.59 9.53211 21.6343 9.53211 21.681C9.53211 21.7277 9.53211 21.7743 9.53211 21.821C9.53678 21.863 9.53911 21.8957 9.53911 21.919V21.954C9.54378 22.1033 9.54611 22.255 9.54611 22.409C9.54611 22.563 9.54611 22.7193 9.54611 22.878V22.997C9.74211 22.9317 9.94744 22.9013 10.1621 22.906C10.3768 22.906 10.5681 22.948 10.7361 23.032C10.9088 23.1207 11.0394 23.221 11.1281 23.333C11.2214 23.445 11.2891 23.5687 11.3311 23.704C11.3731 23.8393 11.3964 23.984 11.4011 24.138C11.4104 24.292 11.4174 24.453 11.4221 24.621ZM12.89 22.836C13.044 22.7613 13.205 22.7077 13.373 22.675C13.541 22.6423 13.7067 22.6353 13.87 22.654C14.038 22.6727 14.199 22.717 14.353 22.787C14.5117 22.857 14.6564 22.955 14.787 23.081C14.8944 23.1883 14.9877 23.319 15.067 23.473C15.1464 23.6223 15.2047 23.7693 15.242 23.914C15.3214 24.1707 15.333 24.4297 15.277 24.691C15.221 24.9523 15.1254 25.195 14.99 25.419C14.9247 25.5217 14.843 25.615 14.745 25.699C14.6517 25.7783 14.5514 25.8437 14.444 25.895C14.304 25.9603 14.1524 26.0047 13.989 26.028C13.8257 26.056 13.667 26.063 13.513 26.049C13.233 26.035 12.9857 25.965 12.771 25.839C12.561 25.713 12.3907 25.552 12.26 25.356C12.134 25.16 12.05 24.9383 12.008 24.691C11.9707 24.439 11.987 24.1823 12.057 23.921C12.1317 23.641 12.239 23.4147 12.379 23.242C12.5237 23.0647 12.694 22.9293 12.89 22.836ZM13.1 23.774C13.03 23.8393 12.9764 23.921 12.939 24.019C12.9017 24.117 12.8784 24.2197 12.869 24.327C12.8597 24.4297 12.8667 24.5347 12.89 24.642C12.918 24.7447 12.96 24.838 13.016 24.922C13.0627 24.992 13.1467 25.0503 13.268 25.097C13.3894 25.1437 13.5154 25.1717 13.646 25.181C13.7954 25.1903 13.926 25.1507 14.038 25.062C14.15 24.9687 14.234 24.8543 14.29 24.719C14.3507 24.5837 14.3787 24.4367 14.374 24.278C14.3694 24.1193 14.3274 23.9747 14.248 23.844C14.192 23.7507 14.1127 23.683 14.01 23.641C13.912 23.5943 13.807 23.571 13.695 23.571C13.5877 23.5663 13.4804 23.5827 13.373 23.62C13.2657 23.6527 13.1747 23.704 13.1 23.774ZM16.7728 22.836C16.9268 22.7613 17.0878 22.7077 17.2558 22.675C17.4238 22.6423 17.5895 22.6353 17.7528 22.654C17.9208 22.6727 18.0818 22.717 18.2358 22.787C18.3945 22.857 18.5392 22.955 18.6698 23.081C18.7772 23.1883 18.8705 23.319 18.9498 23.473C19.0292 23.6223 19.0875 23.7693 19.1248 23.914C19.2042 24.1707 19.2158 24.4297 19.1598 24.691C19.1038 24.9523 19.0082 25.195 18.8728 25.419C18.8075 25.5217 18.7258 25.615 18.6278 25.699C18.5345 25.7783 18.4342 25.8437 18.3268 25.895C18.1868 25.9603 18.0352 26.0047 17.8718 26.028C17.7085 26.056 17.5498 26.063 17.3958 26.049C17.1158 26.035 16.8685 25.965 16.6538 25.839C16.4438 25.713 16.2735 25.552 16.1428 25.356C16.0168 25.16 15.9328 24.9383 15.8908 24.691C15.8535 24.439 15.8698 24.1823 15.9398 23.921C16.0145 23.641 16.1218 23.4147 16.2618 23.242C16.4065 23.0647 16.5768 22.9293 16.7728 22.836ZM16.9828 23.774C16.9128 23.8393 16.8592 23.921 16.8218 24.019C16.7845 24.117 16.7612 24.2197 16.7518 24.327C16.7425 24.4297 16.7495 24.5347 16.7728 24.642C16.8008 24.7447 16.8428 24.838 16.8988 24.922C16.9455 24.992 17.0295 25.0503 17.1508 25.097C17.2722 25.1437 17.3982 25.1717 17.5288 25.181C17.6782 25.1903 17.8088 25.1507 17.9208 25.062C18.0328 24.9687 18.1168 24.8543 18.1728 24.719C18.2335 24.5837 18.2615 24.4367 18.2568 24.278C18.2522 24.1193 18.2102 23.9747 18.1308 23.844C18.0748 23.7507 17.9955 23.683 17.8928 23.641C17.7948 23.5943 17.6898 23.571 17.5778 23.571C17.4705 23.5663 17.3632 23.5827 17.2558 23.62C17.1485 23.6527 17.0575 23.704 16.9828 23.774ZM20.7589 25.44C20.7542 25.4633 20.7495 25.4867 20.7449 25.51C20.7449 25.5287 20.7449 25.5497 20.7449 25.573L20.7029 25.72C20.6935 25.7387 20.6865 25.7503 20.6819 25.755L20.6609 25.797C20.6375 25.8483 20.5955 25.8903 20.5349 25.923C20.4229 25.979 20.3039 25.993 20.1779 25.965C20.0985 25.9557 20.0355 25.9323 19.9889 25.895C19.9422 25.8623 19.9095 25.8227 19.8909 25.776C19.8722 25.7293 19.8582 25.6827 19.8489 25.636C19.8349 25.5893 19.8279 25.5473 19.8279 25.51V21.59C19.8279 21.5573 19.8279 21.5293 19.8279 21.506C19.8325 21.478 19.8372 21.4523 19.8419 21.429C19.8465 21.3963 19.8512 21.3683 19.8559 21.345C19.8652 21.3217 19.8745 21.296 19.8839 21.268C19.8979 21.2213 19.9235 21.184 19.9609 21.156C20.0169 21.114 20.0705 21.0907 20.1219 21.086C20.1545 21.0767 20.1849 21.072 20.2129 21.072C20.2409 21.0673 20.2735 21.065 20.3109 21.065C20.3762 21.065 20.4509 21.0837 20.5349 21.121C20.6002 21.1583 20.6469 21.2097 20.6749 21.275C20.7215 21.3683 20.7449 21.4547 20.7449 21.534C20.7495 21.5807 20.7519 21.6507 20.7519 21.744C20.7565 21.8373 20.7589 21.9073 20.7589 21.954V21.982C20.7682 22.1313 20.7729 22.276 20.7729 22.416C20.7729 22.5513 20.7705 22.7007 20.7659 22.864C20.7659 23.0227 20.7635 23.1767 20.7589 23.326C20.7589 23.4707 20.7589 23.6153 20.7589 23.76V25.23C20.7589 25.2487 20.7589 25.2673 20.7589 25.286C20.7635 25.3 20.7659 25.3163 20.7659 25.335C20.7659 25.3817 20.7635 25.4167 20.7589 25.44Z" fill="white"/>
<path d="M20.535 13.22C20.865 13.06 21.21 12.945 21.57 12.875C21.93 12.805 22.285 12.79 22.635 12.83C22.995 12.87 23.34 12.965 23.67 13.115C24.01 13.265 24.32 13.475 24.6 13.745C24.83 13.975 25.03 14.255 25.2 14.585C25.37 14.905 25.495 15.22 25.575 15.53C25.745 16.08 25.77 16.635 25.65 17.195C25.53 17.755 25.325 18.275 25.035 18.755C24.895 18.975 24.72 19.175 24.51 19.355C24.31 19.525 24.095 19.665 23.865 19.775C23.565 19.915 23.24 20.01 22.89 20.06C22.54 20.12 22.2 20.135 21.87 20.105C21.27 20.075 20.74 19.925 20.28 19.655C19.83 19.385 19.465 19.04 19.185 18.62C18.915 18.2 18.735 17.725 18.645 17.195C18.565 16.655 18.6 16.105 18.75 15.545C18.91 14.945 19.14 14.46 19.44 14.09C19.75 13.71 20.115 13.42 20.535 13.22ZM20.985 15.23C20.835 15.37 20.72 15.545 20.64 15.755C20.56 15.965 20.51 16.185 20.49 16.415C20.47 16.635 20.485 16.86 20.535 17.09C20.595 17.31 20.685 17.51 20.805 17.69C20.905 17.84 21.085 17.965 21.345 18.065C21.605 18.165 21.875 18.225 22.155 18.245C22.475 18.265 22.755 18.18 22.995 17.99C23.235 17.79 23.415 17.545 23.535 17.255C23.665 16.965 23.725 16.65 23.715 16.31C23.705 15.97 23.615 15.66 23.445 15.38C23.325 15.18 23.155 15.035 22.935 14.945C22.725 14.845 22.5 14.795 22.26 14.795C22.03 14.785 21.8 14.82 21.57 14.9C21.34 14.97 21.145 15.08 20.985 15.23Z" fill="white"/>
<path d="M23.574 23.044C23.574 22.932 23.574 22.806 23.574 22.666C23.574 22.5167 23.5787 22.3673 23.588 22.218C23.5973 22.0593 23.6113 21.91 23.63 21.77C23.658 21.6207 23.6953 21.49 23.742 21.378C23.8167 21.21 23.9333 21.098 24.092 21.042C24.2507 20.9767 24.4233 20.9487 24.61 20.958C24.806 20.958 24.96 20.9907 25.072 21.056C25.184 21.1213 25.268 21.21 25.324 21.322C25.38 21.4247 25.4127 21.546 25.422 21.686C25.4407 21.8167 25.45 21.9567 25.45 22.106C25.534 21.9567 25.646 21.8353 25.786 21.742C25.9353 21.6487 26.0847 21.574 26.234 21.518C26.3833 21.462 26.5187 21.4247 26.64 21.406C26.7613 21.378 26.8313 21.364 26.85 21.364C27.0833 21.3453 27.2933 21.3407 27.48 21.35C27.676 21.3593 27.8907 21.4013 28.124 21.476C28.2733 21.532 28.4273 21.6113 28.586 21.714C28.7447 21.8073 28.8847 21.9193 29.006 22.05C29.1273 22.1807 29.2067 22.3253 29.244 22.484C29.2907 22.6333 29.272 22.792 29.188 22.96C29.0573 23.1933 28.9127 23.31 28.754 23.31C28.5953 23.3007 28.4227 23.2727 28.236 23.226C28.1333 23.2073 28.012 23.1653 27.872 23.1C27.732 23.0347 27.6107 22.9927 27.508 22.974C27.1907 22.9273 26.9107 22.9507 26.668 23.044C26.4253 23.1373 26.2153 23.2493 26.038 23.38C25.8327 23.5387 25.6553 23.7207 25.506 23.926V25.942C25.506 26.194 25.5013 26.4553 25.492 26.726C25.492 26.9967 25.4547 27.244 25.38 27.468C25.3147 27.6827 25.198 27.86 25.03 28C24.8713 28.1307 24.638 28.1867 24.33 28.168C24.162 28.1587 24.0127 28.0793 23.882 27.93C23.7513 27.7713 23.672 27.6173 23.644 27.468C23.6253 27.328 23.6113 27.16 23.602 26.964C23.5927 26.768 23.5833 26.5627 23.574 26.348C23.574 26.1333 23.574 25.9187 23.574 25.704C23.574 25.48 23.574 25.2747 23.574 25.088V23.044Z" fill="white"/>
<path d="M33.824 24.32C34.0587 24.5653 34.2293 24.7467 34.336 24.864C34.4533 24.9707 34.5333 25.0507 34.576 25.104C34.6293 25.1573 34.6667 25.1893 34.688 25.2C34.7093 25.2107 34.7467 25.2427 34.8 25.296C34.8533 25.3493 34.9387 25.4347 35.056 25.552C35.1733 25.6587 35.3493 25.8347 35.584 26.08C35.776 26.272 35.9307 26.496 36.048 26.752C36.176 26.9973 36.1653 27.264 36.016 27.552C35.9307 27.7013 35.8347 27.808 35.728 27.872C35.6213 27.9253 35.504 27.9467 35.376 27.936C35.2587 27.9253 35.1307 27.888 34.992 27.824C34.864 27.76 34.736 27.68 34.608 27.584C34.3627 27.4027 34.128 27.1947 33.904 26.96C33.68 26.7147 33.4987 26.528 33.36 26.4C33.264 26.304 33.2053 26.24 33.184 26.208C33.1627 26.1867 33.1413 26.1707 33.12 26.16C33.0987 26.1387 33.0773 26.1173 33.056 26.096C32.9813 26.0213 32.9013 25.9467 32.816 25.872C32.7307 25.7973 32.6453 25.7173 32.56 25.632V26.256C32.56 26.3733 32.5653 26.4587 32.576 26.512C32.576 26.6187 32.5707 26.6987 32.56 26.752C32.528 26.8693 32.512 26.9813 32.512 27.088C32.5013 27.1413 32.4907 27.1947 32.48 27.248C32.4693 27.2907 32.4533 27.3387 32.432 27.392C32.4213 27.4133 32.4107 27.4293 32.4 27.44C32.4 27.4507 32.4 27.4667 32.4 27.488C32.3893 27.5093 32.3787 27.5253 32.368 27.536C32.368 27.5467 32.3627 27.5627 32.352 27.584C32.2987 27.6907 32.2133 27.792 32.096 27.888C31.8933 28.0053 31.6427 28.0373 31.344 27.984C31.184 27.952 31.0613 27.8933 30.976 27.808C30.88 27.744 30.816 27.6533 30.784 27.536C30.7627 27.4827 30.7413 27.4293 30.72 27.376C30.7093 27.312 30.6933 27.2533 30.672 27.2C30.6507 27.1467 30.64 27.0987 30.64 27.056C30.64 27.0027 30.64 26.96 30.64 26.928V17.824C30.64 17.76 30.64 17.696 30.64 17.632C30.64 17.568 30.6453 17.504 30.656 17.44C30.6667 17.376 30.6773 17.3173 30.688 17.264C30.7093 17.2 30.7307 17.1413 30.752 17.088C30.7947 16.9813 30.848 16.896 30.912 16.832C30.9653 16.7787 31.0187 16.7413 31.072 16.72C31.136 16.688 31.1947 16.6613 31.248 16.64C31.3013 16.6293 31.36 16.624 31.424 16.624C31.4987 16.6133 31.568 16.608 31.632 16.608C31.7813 16.608 31.9307 16.6507 32.08 16.736C32.2187 16.832 32.32 16.9547 32.384 17.104C32.4693 17.3067 32.512 17.504 32.512 17.696C32.5227 17.8027 32.5333 17.968 32.544 18.192C32.5547 18.4053 32.56 18.5653 32.56 18.672V18.736C32.5707 19.088 32.576 19.424 32.576 19.744C32.576 20.064 32.576 20.4107 32.576 20.784C32.5653 21.1573 32.56 21.5147 32.56 21.856C32.56 22.1867 32.56 22.5173 32.56 22.848V23.024C32.6453 22.9387 32.7307 22.8587 32.816 22.784C32.9013 22.7093 32.9813 22.6293 33.056 22.544C33.0987 22.512 33.1413 22.4747 33.184 22.432L33.36 22.256C33.4987 22.1173 33.68 21.9307 33.904 21.696C34.128 21.4507 34.3627 21.2373 34.608 21.056C34.8747 20.864 35.1307 20.7467 35.376 20.704C35.632 20.6613 35.8453 20.7893 36.016 21.088C36.1653 21.376 36.176 21.648 36.048 21.904C35.9307 22.1493 35.776 22.3787 35.584 22.592C35.3493 22.8373 35.1733 23.0187 35.056 23.136C34.9387 23.2427 34.8533 23.3227 34.8 23.376C34.7467 23.4187 34.7093 23.4453 34.688 23.456C34.6667 23.4667 34.6293 23.4987 34.576 23.552C34.5333 23.5947 34.4533 23.6747 34.336 23.792C34.2293 23.8987 34.0587 24.0747 33.824 24.32Z" fill="white"/>
<path d="M58.872 13.04C58.888 13.12 58.888 13.2 58.872 13.28C58.872 13.36 58.848 13.448 58.8 13.544C58.736 13.768 58.664 13.968 58.584 14.144C58.488 14.368 58.368 14.56 58.224 14.72C58.16 14.816 58.096 14.912 58.032 15.008C57.984 15.088 57.936 15.168 57.888 15.248L57.576 15.656L54.504 20.096L53.952 20.792V27.176C53.92 27.256 53.904 27.336 53.904 27.416C53.904 27.496 53.896 27.584 53.88 27.68C53.848 27.76 53.824 27.84 53.808 27.92C53.792 27.984 53.768 28.056 53.736 28.136C53.704 28.2 53.688 28.248 53.688 28.28C53.672 28.312 53.656 28.336 53.64 28.352C53.64 28.368 53.632 28.392 53.616 28.424C53.52 28.584 53.384 28.728 53.208 28.856C52.856 29.032 52.456 29.072 52.008 28.976C51.752 28.944 51.56 28.864 51.432 28.736C51.352 28.688 51.288 28.632 51.24 28.568C51.192 28.504 51.144 28.432 51.096 28.352C51.064 28.256 51.032 28.168 51 28.088C50.968 28.008 50.944 27.928 50.928 27.848C50.896 27.768 50.88 27.696 50.88 27.632C50.88 27.552 50.88 27.48 50.88 27.416V20.864L50.352 20.048L47.232 15.632L46.968 15.2C46.872 15.056 46.752 14.888 46.608 14.696C46.48 14.52 46.368 14.328 46.272 14.12C46.208 14.024 46.152 13.928 46.104 13.832C46.072 13.72 46.04 13.608 46.008 13.496C45.96 13.336 45.952 13.176 45.984 13.016C46.032 12.808 46.128 12.632 46.272 12.488C46.432 12.344 46.6 12.232 46.776 12.152C47 11.992 47.256 11.928 47.544 11.96C47.72 11.96 47.872 11.992 48 12.056C48.128 12.12 48.256 12.192 48.384 12.272C48.528 12.384 48.664 12.504 48.792 12.632C48.936 12.76 49.064 12.896 49.176 13.04C49.304 13.2 49.424 13.352 49.536 13.496C49.648 13.624 49.76 13.776 49.872 13.952L49.944 14.048C50.328 14.56 50.688 15.056 51.024 15.536C51.36 16 51.712 16.504 52.08 17.048C52.112 17.08 52.16 17.144 52.224 17.24C52.288 17.336 52.36 17.448 52.44 17.576C52.504 17.464 52.56 17.368 52.608 17.288C52.672 17.192 52.72 17.128 52.752 17.096C53.12 16.552 53.472 16.04 53.808 15.56C54.144 15.08 54.504 14.584 54.888 14.072L54.936 13.976C55.064 13.832 55.176 13.688 55.272 13.544C55.384 13.384 55.504 13.224 55.632 13.064C55.84 12.776 56.12 12.528 56.472 12.32C56.728 12.144 56.992 12.032 57.264 11.984C57.568 11.952 57.832 12.016 58.056 12.176C58.152 12.24 58.24 12.296 58.32 12.344C58.416 12.392 58.496 12.448 58.56 12.512C58.688 12.656 58.792 12.832 58.872 13.04ZM61.1029 18.152C61.6309 17.896 62.1829 17.712 62.7589 17.6C63.3349 17.488 63.9029 17.464 64.4629 17.528C65.0389 17.592 65.5909 17.744 66.1189 17.984C66.6629 18.224 67.1589 18.56 67.6069 18.992C67.9749 19.36 68.2949 19.808 68.5669 20.336C68.8389 20.848 69.0389 21.352 69.1669 21.848C69.4389 22.728 69.4789 23.616 69.2869 24.512C69.0949 25.408 68.7669 26.24 68.3029 27.008C68.0789 27.36 67.7989 27.68 67.4629 27.968C67.1429 28.24 66.7989 28.464 66.4309 28.64C65.9509 28.864 65.4309 29.016 64.8709 29.096C64.3109 29.192 63.7669 29.216 63.2389 29.168C62.2789 29.12 61.4309 28.88 60.6949 28.448C59.9749 28.016 59.3909 27.464 58.9429 26.792C58.5109 26.12 58.2229 25.36 58.0789 24.512C57.9509 23.648 58.0069 22.768 58.2469 21.872C58.5029 20.912 58.8709 20.136 59.3509 19.544C59.8469 18.936 60.4309 18.472 61.1029 18.152ZM61.8229 21.368C61.5829 21.592 61.3989 21.872 61.2709 22.208C61.1429 22.544 61.0629 22.896 61.0309 23.264C60.9989 23.616 61.0229 23.976 61.1029 24.344C61.1989 24.696 61.3429 25.016 61.5349 25.304C61.6949 25.544 61.9829 25.744 62.3989 25.904C62.8149 26.064 63.2469 26.16 63.6949 26.192C64.2069 26.224 64.6549 26.088 65.0389 25.784C65.4229 25.464 65.7109 25.072 65.9029 24.608C66.1109 24.144 66.2069 23.64 66.1909 23.096C66.1749 22.552 66.0309 22.056 65.7589 21.608C65.5669 21.288 65.2949 21.056 64.9429 20.912C64.6069 20.752 64.2469 20.672 63.8629 20.672C63.4949 20.656 63.1269 20.712 62.7589 20.84C62.3909 20.952 62.0789 21.128 61.8229 21.368ZM71.3434 20.504C71.3434 20.312 71.3434 20.096 71.3434 19.856C71.3434 19.6 71.3514 19.344 71.3674 19.088C71.3834 18.816 71.4074 18.56 71.4394 18.32C71.4874 18.064 71.5514 17.84 71.6314 17.648C71.7594 17.36 71.9594 17.168 72.2314 17.072C72.5034 16.96 72.7994 16.912 73.1194 16.928C73.4554 16.928 73.7194 16.984 73.9114 17.096C74.1034 17.208 74.2474 17.36 74.3434 17.552C74.4394 17.728 74.4954 17.936 74.5114 18.176C74.5434 18.4 74.5594 18.64 74.5594 18.896C74.7034 18.64 74.8954 18.432 75.1354 18.272C75.3914 18.112 75.6474 17.984 75.9034 17.888C76.1594 17.792 76.3914 17.728 76.5994 17.696C76.8074 17.648 76.9274 17.624 76.9594 17.624C77.3594 17.592 77.7194 17.584 78.0394 17.6C78.3754 17.616 78.7434 17.688 79.1434 17.816C79.3994 17.912 79.6634 18.048 79.9354 18.224C80.2074 18.384 80.4474 18.576 80.6554 18.8C80.8634 19.024 80.9994 19.272 81.0634 19.544C81.1434 19.8 81.1114 20.072 80.9674 20.36C80.7434 20.76 80.4954 20.96 80.2234 20.96C79.9514 20.944 79.6554 20.896 79.3354 20.816C79.1594 20.784 78.9514 20.712 78.7114 20.6C78.4714 20.488 78.2634 20.416 78.0874 20.384C77.5434 20.304 77.0634 20.344 76.6474 20.504C76.2314 20.664 75.8714 20.856 75.5674 21.08C75.2154 21.352 74.9114 21.664 74.6554 22.016V25.472C74.6554 25.904 74.6474 26.352 74.6314 26.816C74.6314 27.28 74.5674 27.704 74.4394 28.088C74.3274 28.456 74.1274 28.76 73.8394 29C73.5674 29.224 73.1674 29.32 72.6394 29.288C72.3514 29.272 72.0954 29.136 71.8714 28.88C71.6474 28.608 71.5114 28.344 71.4634 28.088C71.4314 27.848 71.4074 27.56 71.3914 27.224C71.3754 26.888 71.3594 26.536 71.3434 26.168C71.3434 25.8 71.3434 25.432 71.3434 25.064C71.3434 24.68 71.3434 24.328 71.3434 24.008V20.504ZM87.8141 23.48C88.1661 23.848 88.4221 24.12 88.5821 24.296C88.7581 24.456 88.8781 24.576 88.9421 24.656C89.0221 24.736 89.0781 24.784 89.1101 24.8C89.1421 24.816 89.1981 24.864 89.2781 24.944C89.3581 25.024 89.4861 25.152 89.6621 25.328C89.8381 25.488 90.1021 25.752 90.4541 26.12C90.7421 26.408 90.9741 26.744 91.1501 27.128C91.3421 27.496 91.3261 27.896 91.1021 28.328C90.9741 28.552 90.8301 28.712 90.6701 28.808C90.5101 28.888 90.3341 28.92 90.1421 28.904C89.9661 28.888 89.7741 28.832 89.5661 28.736C89.3741 28.64 89.1821 28.52 88.9901 28.376C88.6221 28.104 88.2701 27.792 87.9341 27.44C87.5981 27.072 87.3261 26.792 87.1181 26.6C86.9741 26.456 86.8861 26.36 86.8541 26.312C86.8221 26.28 86.7901 26.256 86.7581 26.24C86.7261 26.208 86.6941 26.176 86.6621 26.144C86.5501 26.032 86.4301 25.92 86.3021 25.808C86.1741 25.696 86.0461 25.576 85.9181 25.448V26.384C85.9181 26.56 85.9261 26.688 85.9421 26.768C85.9421 26.928 85.9341 27.048 85.9181 27.128C85.8701 27.304 85.8461 27.472 85.8461 27.632C85.8301 27.712 85.8141 27.792 85.7981 27.872C85.7821 27.936 85.7581 28.008 85.7261 28.088C85.7101 28.12 85.6941 28.144 85.6781 28.16C85.6781 28.176 85.6781 28.2 85.6781 28.232C85.6621 28.264 85.6461 28.288 85.6301 28.304C85.6301 28.32 85.6221 28.344 85.6061 28.376C85.5261 28.536 85.3981 28.688 85.2221 28.832C84.9181 29.008 84.5421 29.056 84.0941 28.976C83.8541 28.928 83.6701 28.84 83.5421 28.712C83.3981 28.616 83.3021 28.48 83.2541 28.304C83.2221 28.224 83.1901 28.144 83.1581 28.064C83.1421 27.968 83.1181 27.88 83.0861 27.8C83.0541 27.72 83.0381 27.648 83.0381 27.584C83.0381 27.504 83.0381 27.44 83.0381 27.392V13.736C83.0381 13.64 83.0381 13.544 83.0381 13.448C83.0381 13.352 83.0461 13.256 83.0621 13.16C83.0781 13.064 83.0941 12.976 83.1101 12.896C83.1421 12.8 83.1741 12.712 83.2061 12.632C83.2701 12.472 83.3501 12.344 83.4461 12.248C83.5261 12.168 83.6061 12.112 83.6861 12.08C83.7821 12.032 83.8701 11.992 83.9501 11.96C84.0301 11.944 84.1181 11.936 84.2141 11.936C84.3261 11.92 84.4301 11.912 84.5261 11.912C84.7501 11.912 84.9741 11.976 85.1981 12.104C85.4061 12.248 85.5581 12.432 85.6541 12.656C85.7821 12.96 85.8461 13.256 85.8461 13.544C85.8621 13.704 85.8781 13.952 85.8941 14.288C85.9101 14.608 85.9181 14.848 85.9181 15.008V15.104C85.9341 15.632 85.9421 16.136 85.9421 16.616C85.9421 17.096 85.9421 17.616 85.9421 18.176C85.9261 18.736 85.9181 19.272 85.9181 19.784C85.9181 20.28 85.9181 20.776 85.9181 21.272V21.536C86.0461 21.408 86.1741 21.288 86.3021 21.176C86.4301 21.064 86.5501 20.944 86.6621 20.816C86.7261 20.768 86.7901 20.712 86.8541 20.648L87.1181 20.384C87.3261 20.176 87.5981 19.896 87.9341 19.544C88.2701 19.176 88.6221 18.856 88.9901 18.584C89.3901 18.296 89.7741 18.12 90.1421 18.056C90.5261 17.992 90.8461 18.184 91.1021 18.632C91.3261 19.064 91.3421 19.472 91.1501 19.856C90.9741 20.224 90.7421 20.568 90.4541 20.888C90.1021 21.256 89.8381 21.528 89.6621 21.704C89.4861 21.864 89.3581 21.984 89.2781 22.064C89.1981 22.128 89.1421 22.168 89.1101 22.184C89.0781 22.2 89.0221 22.248 88.9421 22.328C88.8781 22.392 88.7581 22.512 88.5821 22.688C88.4221 22.848 88.1661 23.112 87.8141 23.48ZM106.141 24.776C105.837 24.584 105.493 24.432 105.109 24.32C104.741 24.208 104.357 24.104 103.957 24.008C103.573 23.912 103.197 23.808 102.829 23.696C102.461 23.568 102.125 23.392 101.821 23.168C101.165 22.672 100.781 22.064 100.669 21.344C100.573 20.608 100.733 19.872 101.149 19.136C101.373 18.752 101.669 18.44 102.037 18.2C102.405 17.944 102.805 17.752 103.237 17.624C103.685 17.48 104.141 17.4 104.605 17.384C105.069 17.368 105.509 17.392 105.925 17.456C106.197 17.504 106.485 17.576 106.789 17.672C107.093 17.752 107.373 17.864 107.629 18.008C107.901 18.152 108.141 18.336 108.349 18.56C108.573 18.768 108.733 19.032 108.829 19.352C108.893 19.56 108.901 19.76 108.853 19.952C108.821 20.144 108.741 20.304 108.613 20.432C108.501 20.56 108.349 20.656 108.157 20.72C107.981 20.784 107.789 20.8 107.581 20.768C107.341 20.72 107.117 20.648 106.909 20.552C106.701 20.456 106.493 20.352 106.285 20.24C106.077 20.128 105.861 20.032 105.637 19.952C105.429 19.872 105.205 19.832 104.965 19.832C104.597 19.816 104.293 19.88 104.053 20.024C103.813 20.168 103.645 20.344 103.549 20.552C103.469 20.76 103.477 20.984 103.573 21.224C103.685 21.464 103.909 21.672 104.245 21.848C104.549 22.008 104.885 22.136 105.253 22.232C105.621 22.328 105.981 22.424 106.333 22.52C106.701 22.616 107.053 22.728 107.389 22.856C107.741 22.984 108.053 23.16 108.325 23.384C108.853 23.816 109.173 24.32 109.285 24.896C109.413 25.472 109.381 26.04 109.189 26.6C108.997 27.16 108.661 27.656 108.181 28.088C107.717 28.52 107.165 28.808 106.525 28.952C106.061 29.048 105.557 29.096 105.013 29.096C104.485 29.096 103.957 29.04 103.429 28.928C102.917 28.816 102.421 28.64 101.941 28.4C101.477 28.16 101.085 27.856 100.765 27.488C100.541 27.232 100.421 26.944 100.405 26.624C100.405 26.288 100.469 26 100.597 25.76C100.741 25.504 100.941 25.328 101.197 25.232C101.453 25.136 101.741 25.192 102.061 25.4C102.317 25.576 102.621 25.752 102.973 25.928C103.325 26.088 103.677 26.216 104.029 26.312C104.381 26.408 104.717 26.456 105.037 26.456C105.373 26.456 105.661 26.384 105.901 26.24C106.253 26.016 106.437 25.76 106.453 25.472C106.469 25.168 106.365 24.936 106.141 24.776ZM120.232 19.76C120.36 19.984 120.424 20.224 120.424 20.48C120.44 20.736 120.384 20.976 120.256 21.2C120.112 21.488 119.904 21.688 119.632 21.8C119.376 21.896 119.088 21.904 118.768 21.824C118.624 21.792 118.496 21.736 118.384 21.656C118.272 21.576 118.152 21.496 118.024 21.416C117.912 21.32 117.776 21.232 117.616 21.152C117.472 21.072 117.28 21.016 117.04 20.984C116.8 20.952 116.536 20.952 116.248 20.984C115.976 21.016 115.728 21.08 115.504 21.176C115.152 21.352 114.872 21.624 114.664 21.992C114.456 22.344 114.32 22.728 114.256 23.144C114.192 23.544 114.2 23.952 114.28 24.368C114.376 24.784 114.552 25.136 114.808 25.424C115 25.648 115.248 25.832 115.552 25.976C115.872 26.12 116.176 26.208 116.464 26.24C116.736 26.272 117.008 26.272 117.28 26.24C117.552 26.192 117.816 26.128 118.072 26.048C118.264 25.968 118.48 25.864 118.72 25.736C118.96 25.592 119.192 25.504 119.416 25.472C119.704 25.472 119.928 25.552 120.088 25.712C120.248 25.856 120.36 26.04 120.424 26.264C120.488 26.472 120.496 26.696 120.448 26.936C120.416 27.176 120.328 27.384 120.184 27.56C119.992 27.8 119.72 28.032 119.368 28.256C119.016 28.464 118.68 28.616 118.36 28.712C117.976 28.84 117.544 28.912 117.064 28.928C116.6 28.944 116.16 28.928 115.744 28.88C115.552 28.848 115.352 28.808 115.144 28.76C114.936 28.712 114.736 28.656 114.544 28.592C113.84 28.336 113.248 27.976 112.768 27.512C112.304 27.032 111.944 26.496 111.688 25.904C111.448 25.312 111.312 24.68 111.28 24.008C111.248 23.336 111.328 22.672 111.52 22.016C111.696 21.392 111.912 20.864 112.168 20.432C112.44 20 112.752 19.648 113.104 19.376C113.472 19.088 113.88 18.864 114.328 18.704C114.776 18.528 115.272 18.376 115.816 18.248C116.376 18.136 116.968 18.136 117.592 18.248C118.216 18.36 118.776 18.568 119.272 18.872C119.656 19.08 119.976 19.376 120.232 19.76ZM131.75 24.272C131.766 24.592 131.774 24.928 131.774 25.28C131.774 25.616 131.766 25.928 131.75 26.216C131.734 26.648 131.71 27.048 131.678 27.416C131.646 27.768 131.582 28.072 131.486 28.328C131.39 28.568 131.238 28.752 131.03 28.88C130.838 28.992 130.566 29.024 130.214 28.976C129.846 28.928 129.582 28.752 129.422 28.448C129.262 28.144 129.15 27.8 129.086 27.416C129.038 27.016 129.022 26.616 129.038 26.216C129.054 25.816 129.054 25.504 129.038 25.28C129.022 24.928 129.006 24.528 128.99 24.08C128.99 23.616 128.942 23.184 128.846 22.784C128.766 22.368 128.622 22.016 128.414 21.728C128.206 21.44 127.894 21.288 127.478 21.272C126.95 21.24 126.542 21.28 126.254 21.392C125.982 21.504 125.782 21.672 125.654 21.896C125.526 22.104 125.446 22.36 125.414 22.664C125.398 22.968 125.366 23.296 125.318 23.648L125.294 24.584V26.336C125.294 26.624 125.286 26.928 125.27 27.248C125.27 27.552 125.222 27.832 125.126 28.088C125.03 28.344 124.878 28.56 124.67 28.736C124.478 28.912 124.19 29 123.806 29C123.326 29 122.966 28.848 122.726 28.544C122.502 28.224 122.39 27.832 122.39 27.368V13.568C122.39 13.472 122.39 13.384 122.39 13.304C122.406 13.208 122.422 13.112 122.438 13.016C122.47 12.92 122.494 12.832 122.51 12.752C122.526 12.656 122.55 12.568 122.582 12.488C122.63 12.328 122.71 12.208 122.822 12.128C122.902 12.048 122.982 11.984 123.062 11.936C123.142 11.888 123.23 11.856 123.326 11.84C123.406 11.824 123.494 11.816 123.59 11.816C123.686 11.8 123.782 11.792 123.878 11.792C124.118 11.792 124.35 11.864 124.574 12.008C124.67 12.072 124.758 12.144 124.838 12.224C124.918 12.288 124.982 12.384 125.03 12.512C125.158 12.816 125.222 13.104 125.222 13.376C125.238 13.456 125.246 13.576 125.246 13.736C125.262 13.88 125.27 14.032 125.27 14.192C125.27 14.352 125.27 14.512 125.27 14.672C125.286 14.816 125.294 14.928 125.294 15.008V15.128C125.31 15.64 125.318 16.16 125.318 16.688C125.318 17.216 125.318 17.752 125.318 18.296V18.704C125.99 18.48 126.694 18.376 127.43 18.392C128.166 18.392 128.822 18.536 129.398 18.824C129.99 19.128 130.438 19.472 130.742 19.856C131.062 20.24 131.294 20.664 131.438 21.128C131.582 21.592 131.662 22.088 131.678 22.616C131.71 23.144 131.734 23.696 131.75 24.272ZM136.783 18.152C137.311 17.896 137.863 17.712 138.439 17.6C139.015 17.488 139.583 17.464 140.143 17.528C140.719 17.592 141.271 17.744 141.799 17.984C142.343 18.224 142.839 18.56 143.287 18.992C143.655 19.36 143.975 19.808 144.247 20.336C144.519 20.848 144.719 21.352 144.847 21.848C145.119 22.728 145.159 23.616 144.967 24.512C144.775 25.408 144.447 26.24 143.983 27.008C143.759 27.36 143.479 27.68 143.143 27.968C142.823 28.24 142.479 28.464 142.111 28.64C141.631 28.864 141.111 29.016 140.551 29.096C139.991 29.192 139.447 29.216 138.919 29.168C137.959 29.12 137.111 28.88 136.375 28.448C135.655 28.016 135.071 27.464 134.623 26.792C134.191 26.12 133.903 25.36 133.759 24.512C133.631 23.648 133.687 22.768 133.927 21.872C134.183 20.912 134.551 20.136 135.031 19.544C135.527 18.936 136.111 18.472 136.783 18.152ZM137.503 21.368C137.263 21.592 137.079 21.872 136.951 22.208C136.823 22.544 136.743 22.896 136.711 23.264C136.679 23.616 136.703 23.976 136.783 24.344C136.879 24.696 137.023 25.016 137.215 25.304C137.375 25.544 137.663 25.744 138.079 25.904C138.495 26.064 138.927 26.16 139.375 26.192C139.887 26.224 140.335 26.088 140.719 25.784C141.103 25.464 141.391 25.072 141.583 24.608C141.791 24.144 141.887 23.64 141.871 23.096C141.855 22.552 141.711 22.056 141.439 21.608C141.247 21.288 140.975 21.056 140.623 20.912C140.287 20.752 139.927 20.672 139.543 20.672C139.175 20.656 138.807 20.712 138.439 20.84C138.071 20.952 137.759 21.128 137.503 21.368ZM150.095 18.152C150.623 17.896 151.175 17.712 151.751 17.6C152.327 17.488 152.895 17.464 153.455 17.528C154.031 17.592 154.583 17.744 155.111 17.984C155.655 18.224 156.151 18.56 156.599 18.992C156.967 19.36 157.287 19.808 157.559 20.336C157.831 20.848 158.031 21.352 158.159 21.848C158.431 22.728 158.471 23.616 158.279 24.512C158.087 25.408 157.759 26.24 157.295 27.008C157.071 27.36 156.791 27.68 156.455 27.968C156.135 28.24 155.791 28.464 155.423 28.64C154.943 28.864 154.423 29.016 153.863 29.096C153.303 29.192 152.759 29.216 152.231 29.168C151.271 29.12 150.423 28.88 149.687 28.448C148.967 28.016 148.383 27.464 147.935 26.792C147.503 26.12 147.215 25.36 147.071 24.512C146.943 23.648 146.999 22.768 147.239 21.872C147.495 20.912 147.863 20.136 148.343 19.544C148.839 18.936 149.423 18.472 150.095 18.152ZM150.815 21.368C150.575 21.592 150.391 21.872 150.263 22.208C150.135 22.544 150.055 22.896 150.023 23.264C149.991 23.616 150.015 23.976 150.095 24.344C150.191 24.696 150.335 25.016 150.527 25.304C150.687 25.544 150.975 25.744 151.391 25.904C151.807 26.064 152.239 26.16 152.687 26.192C153.199 26.224 153.647 26.088 154.031 25.784C154.415 25.464 154.703 25.072 154.895 24.608C155.103 24.144 155.199 23.64 155.183 23.096C155.167 22.552 155.023 22.056 154.751 21.608C154.559 21.288 154.287 21.056 153.935 20.912C153.599 20.752 153.239 20.672 152.855 20.672C152.487 20.656 152.119 20.712 151.751 20.84C151.383 20.952 151.071 21.128 150.815 21.368ZM163.761 27.08C163.745 27.16 163.729 27.24 163.713 27.32C163.713 27.384 163.713 27.456 163.713 27.536L163.569 28.04C163.537 28.104 163.513 28.144 163.497 28.16L163.425 28.304C163.345 28.48 163.201 28.624 162.993 28.736C162.609 28.928 162.201 28.976 161.769 28.88C161.497 28.848 161.281 28.768 161.121 28.64C160.961 28.528 160.849 28.392 160.785 28.232C160.721 28.072 160.673 27.912 160.641 27.752C160.593 27.592 160.569 27.448 160.569 27.32V13.88C160.569 13.768 160.569 13.672 160.569 13.592C160.585 13.496 160.601 13.408 160.617 13.328C160.633 13.216 160.649 13.12 160.665 13.04C160.697 12.96 160.729 12.872 160.761 12.776C160.809 12.616 160.897 12.488 161.025 12.392C161.217 12.248 161.401 12.168 161.577 12.152C161.689 12.12 161.793 12.104 161.889 12.104C161.985 12.088 162.097 12.08 162.225 12.08C162.449 12.08 162.705 12.144 162.993 12.272C163.217 12.4 163.377 12.576 163.473 12.8C163.633 13.12 163.713 13.416 163.713 13.688C163.729 13.848 163.737 14.088 163.737 14.408C163.753 14.728 163.761 14.968 163.761 15.128V15.224C163.793 15.736 163.809 16.232 163.809 16.712C163.809 17.176 163.801 17.688 163.785 18.248C163.785 18.792 163.777 19.32 163.761 19.832C163.761 20.328 163.761 20.824 163.761 21.32V26.36C163.761 26.424 163.761 26.488 163.761 26.552C163.777 26.6 163.785 26.656 163.785 26.72C163.785 26.88 163.777 27 163.761 27.08Z" fill="#405A67"/>
</svg>
