<svg width="275" height="40" viewBox="0 0 275 40" fill="none" xmlns="http://www.w3.org/2000/svg">
<path d="M10.88 39V27.16L12.72 31.92L0.2 11H8.56L17.6 26.16H12.76L21.84 11H29.52L17.04 31.92L18.8 27.16V39H10.88ZM39.6716 39.36C37.2982 39.36 35.1916 38.88 33.3516 37.92C31.5116 36.96 30.0582 35.64 28.9916 33.96C27.9516 32.2533 27.4316 30.3067 27.4316 28.12C27.4316 25.9333 27.9516 24 28.9916 22.32C30.0582 20.64 31.5116 19.3333 33.3516 18.4C35.1916 17.44 37.2982 16.96 39.6716 16.96C42.0449 16.96 44.1516 17.44 45.9916 18.4C47.8582 19.3333 49.3116 20.64 50.3516 22.32C51.3916 24 51.9116 25.9333 51.9116 28.12C51.9116 30.3067 51.3916 32.2533 50.3516 33.96C49.3116 35.64 47.8582 36.96 45.9916 37.92C44.1516 38.88 42.0449 39.36 39.6716 39.36ZM39.6716 33.32C40.5516 33.32 41.3249 33.12 41.9916 32.72C42.6849 32.32 43.2316 31.7333 43.6316 30.96C44.0316 30.16 44.2316 29.2133 44.2316 28.12C44.2316 27.0267 44.0316 26.1067 43.6316 25.36C43.2316 24.5867 42.6849 24 41.9916 23.6C41.3249 23.2 40.5516 23 39.6716 23C38.8182 23 38.0449 23.2 37.3516 23.6C36.6849 24 36.1382 24.5867 35.7116 25.36C35.3116 26.1067 35.1116 27.0267 35.1116 28.12C35.1116 29.2133 35.3116 30.16 35.7116 30.96C36.1382 31.7333 36.6849 32.32 37.3516 32.72C38.0449 33.12 38.8182 33.32 39.6716 33.32ZM55.4322 39V17.32H62.6722V23.64L61.5922 21.84C62.2322 20.2133 63.2722 19 64.7122 18.2C66.1522 17.3733 67.8989 16.96 69.9522 16.96V23.8C69.6055 23.7467 69.2989 23.72 69.0322 23.72C68.7922 23.6933 68.5255 23.68 68.2322 23.68C66.6855 23.68 65.4322 24.1067 64.4722 24.96C63.5122 25.7867 63.0322 27.1467 63.0322 29.04V39H55.4322ZM79.4084 35L79.6084 25.92L88.4484 17.32H97.4484L87.6484 27.44L83.7684 30.56L79.4084 35ZM73.0884 39V9.32H80.6884V39H73.0884ZM89.0084 39L82.3684 30.68L87.0884 24.84L98.2084 39H89.0084ZM120.031 39.36C118.191 39.36 116.391 39.1467 114.631 38.72C112.898 38.2933 111.498 37.76 110.431 37.12L112.711 31.92C113.724 32.5333 114.911 33.0267 116.271 33.4C117.631 33.7467 118.964 33.92 120.271 33.92C121.551 33.92 122.431 33.7867 122.911 33.52C123.418 33.2533 123.671 32.8933 123.671 32.44C123.671 32.0133 123.431 31.7067 122.951 31.52C122.498 31.3067 121.884 31.1467 121.111 31.04C120.364 30.9333 119.538 30.8133 118.631 30.68C117.724 30.5467 116.804 30.3733 115.871 30.16C114.964 29.92 114.124 29.5733 113.351 29.12C112.604 28.64 112.004 28 111.551 27.2C111.098 26.4 110.871 25.3867 110.871 24.16C110.871 22.7733 111.271 21.5467 112.071 20.48C112.898 19.3867 114.098 18.5333 115.671 17.92C117.244 17.28 119.164 16.96 121.431 16.96C122.951 16.96 124.484 17.12 126.031 17.44C127.604 17.7333 128.924 18.1867 129.991 18.8L127.711 23.96C126.644 23.3467 125.578 22.9333 124.511 22.72C123.444 22.48 122.431 22.36 121.471 22.36C120.191 22.36 119.284 22.5067 118.751 22.8C118.244 23.0933 117.991 23.4533 117.991 23.88C117.991 24.3067 118.218 24.64 118.671 24.88C119.124 25.0933 119.724 25.2667 120.471 25.4C121.244 25.5067 122.084 25.6267 122.991 25.76C123.898 25.8667 124.804 26.04 125.711 26.28C126.644 26.52 127.484 26.88 128.231 27.36C129.004 27.8133 129.618 28.44 130.071 29.24C130.524 30.0133 130.751 31.0133 130.751 32.24C130.751 33.5733 130.338 34.7733 129.511 35.84C128.711 36.9067 127.511 37.76 125.911 38.4C124.338 39.04 122.378 39.36 120.031 39.36ZM145.106 39.36C142.706 39.36 140.559 38.88 138.666 37.92C136.799 36.96 135.333 35.64 134.266 33.96C133.199 32.2533 132.666 30.3067 132.666 28.12C132.666 25.9333 133.199 24 134.266 22.32C135.333 20.64 136.799 19.3333 138.666 18.4C140.559 17.44 142.706 16.96 145.106 16.96C147.559 16.96 149.679 17.48 151.466 18.52C153.253 19.56 154.519 21.0267 155.266 22.92L149.386 25.92C148.879 24.9067 148.253 24.1733 147.506 23.72C146.759 23.24 145.946 23 145.066 23C144.186 23 143.386 23.2 142.666 23.6C141.946 24 141.373 24.5867 140.946 25.36C140.546 26.1067 140.346 27.0267 140.346 28.12C140.346 29.24 140.546 30.1867 140.946 30.96C141.373 31.7333 141.946 32.32 142.666 32.72C143.386 33.12 144.186 33.32 145.066 33.32C145.946 33.32 146.759 33.0933 147.506 32.64C148.253 32.16 148.879 31.4133 149.386 30.4L155.266 33.4C154.519 35.2933 153.253 36.76 151.466 37.8C149.679 38.84 147.559 39.36 145.106 39.36ZM172.169 16.96C173.849 16.96 175.369 17.3067 176.729 18C178.089 18.6667 179.156 19.7067 179.929 21.12C180.729 22.5333 181.129 24.36 181.129 26.6V39H173.529V27.84C173.529 26.2933 173.209 25.1733 172.569 24.48C171.956 23.76 171.089 23.4 169.969 23.4C169.169 23.4 168.436 23.5867 167.769 23.96C167.103 24.3067 166.583 24.8533 166.209 25.6C165.836 26.3467 165.649 27.32 165.649 28.52V39H158.049V9.32H165.649V23.48L163.889 21.68C164.716 20.1067 165.849 18.9333 167.289 18.16C168.729 17.36 170.356 16.96 172.169 16.96ZM197.054 39.36C194.681 39.36 192.574 38.88 190.734 37.92C188.894 36.96 187.441 35.64 186.374 33.96C185.334 32.2533 184.814 30.3067 184.814 28.12C184.814 25.9333 185.334 24 186.374 22.32C187.441 20.64 188.894 19.3333 190.734 18.4C192.574 17.44 194.681 16.96 197.054 16.96C199.428 16.96 201.534 17.44 203.374 18.4C205.241 19.3333 206.694 20.64 207.734 22.32C208.774 24 209.294 25.9333 209.294 28.12C209.294 30.3067 208.774 32.2533 207.734 33.96C206.694 35.64 205.241 36.96 203.374 37.92C201.534 38.88 199.428 39.36 197.054 39.36ZM197.054 33.32C197.934 33.32 198.708 33.12 199.374 32.72C200.068 32.32 200.614 31.7333 201.014 30.96C201.414 30.16 201.614 29.2133 201.614 28.12C201.614 27.0267 201.414 26.1067 201.014 25.36C200.614 24.5867 200.068 24 199.374 23.6C198.708 23.2 197.934 23 197.054 23C196.201 23 195.428 23.2 194.734 23.6C194.068 24 193.521 24.5867 193.094 25.36C192.694 26.1067 192.494 27.0267 192.494 28.12C192.494 29.2133 192.694 30.16 193.094 30.96C193.521 31.7333 194.068 32.32 194.734 32.72C195.428 33.12 196.201 33.32 197.054 33.32ZM223.695 39.36C221.322 39.36 219.215 38.88 217.375 37.92C215.535 36.96 214.082 35.64 213.015 33.96C211.975 32.2533 211.455 30.3067 211.455 28.12C211.455 25.9333 211.975 24 213.015 22.32C214.082 20.64 215.535 19.3333 217.375 18.4C219.215 17.44 221.322 16.96 223.695 16.96C226.068 16.96 228.175 17.44 230.015 18.4C231.882 19.3333 233.335 20.64 234.375 22.32C235.415 24 235.935 25.9333 235.935 28.12C235.935 30.3067 235.415 32.2533 234.375 33.96C233.335 35.64 231.882 36.96 230.015 37.92C228.175 38.88 226.068 39.36 223.695 39.36ZM223.695 33.32C224.575 33.32 225.348 33.12 226.015 32.72C226.708 32.32 227.255 31.7333 227.655 30.96C228.055 30.16 228.255 29.2133 228.255 28.12C228.255 27.0267 228.055 26.1067 227.655 25.36C227.255 24.5867 226.708 24 226.015 23.6C225.348 23.2 224.575 23 223.695 23C222.842 23 222.068 23.2 221.375 23.6C220.708 24 220.162 24.5867 219.735 25.36C219.335 26.1067 219.135 27.0267 219.135 28.12C219.135 29.2133 219.335 30.16 219.735 30.96C220.162 31.7333 220.708 32.32 221.375 32.72C222.068 33.12 222.842 33.32 223.695 33.32ZM239.456 39V9.32H247.056V39H239.456Z" fill="#405A67"/>
</svg>
