<svg width="50" height="40" viewBox="0 0 50 40" fill="none" xmlns="http://www.w3.org/2000/svg">
<path d="M40 20C40 31.0457 31.0457 40 20 40C8.95431 40 0 31.0457 0 20C0 8.95431 8.95431 0 20 0C31.0457 0 40 8.95431 40 20Z" fill="#384B59"/>
<path d="M20.56 6.7C20.5733 6.76667 20.5733 6.83333 20.56 6.9C20.56 6.96667 20.54 7.04 20.5 7.12C20.4467 7.30667 20.3867 7.47333 20.32 7.62C20.24 7.80667 20.14 7.96667 20.02 8.1C19.9667 8.18 19.9133 8.26 19.86 8.34C19.82 8.40667 19.78 8.47333 19.74 8.54L19.48 8.88L16.92 12.58L16.46 13.16V18.48C16.4333 18.5467 16.42 18.6133 16.42 18.68C16.42 18.7467 16.4133 18.82 16.4 18.9C16.3733 18.9667 16.3533 19.0333 16.34 19.1C16.3267 19.1533 16.3067 19.2133 16.28 19.28C16.2533 19.3333 16.24 19.3733 16.24 19.4C16.2267 19.4267 16.2133 19.4467 16.2 19.46C16.2 19.4733 16.1933 19.4933 16.18 19.52C16.1 19.6533 15.9867 19.7733 15.84 19.88C15.5467 20.0267 15.2133 20.06 14.84 19.98C14.6267 19.9533 14.4667 19.8867 14.36 19.78C14.2933 19.74 14.24 19.6933 14.2 19.64C14.16 19.5867 14.12 19.5267 14.08 19.46C14.0533 19.38 14.0267 19.3067 14 19.24C13.9733 19.1733 13.9533 19.1067 13.94 19.04C13.9133 18.9733 13.9 18.9133 13.9 18.86C13.9 18.7933 13.9 18.7333 13.9 18.68V13.22L13.46 12.54L10.86 8.86L10.64 8.5C10.56 8.38 10.46 8.24 10.34 8.08C10.2333 7.93333 10.14 7.77333 10.06 7.6C10.0067 7.52 9.96 7.44 9.92 7.36C9.89333 7.26667 9.86667 7.17333 9.84 7.08C9.8 6.94667 9.79333 6.81333 9.82 6.68C9.86 6.50667 9.94 6.36 10.06 6.24C10.1933 6.12 10.3333 6.02667 10.48 5.96C10.6667 5.82667 10.88 5.77333 11.12 5.8C11.2667 5.8 11.3933 5.82667 11.5 5.88C11.6067 5.93333 11.7133 5.99333 11.82 6.06C11.94 6.15333 12.0533 6.25333 12.16 6.36C12.28 6.46667 12.3867 6.58 12.48 6.7C12.5867 6.83333 12.6867 6.96 12.78 7.08C12.8733 7.18667 12.9667 7.31333 13.06 7.46L13.12 7.54C13.44 7.96667 13.74 8.38 14.02 8.78C14.3 9.16667 14.5933 9.58667 14.9 10.04C14.9267 10.0667 14.9667 10.12 15.02 10.2C15.0733 10.28 15.1333 10.3733 15.2 10.48C15.2533 10.3867 15.3 10.3067 15.34 10.24C15.3933 10.16 15.4333 10.1067 15.46 10.08C15.7667 9.62667 16.06 9.2 16.34 8.8C16.62 8.4 16.92 7.98667 17.24 7.56L17.28 7.48C17.3867 7.36 17.48 7.24 17.56 7.12C17.6533 6.98667 17.7533 6.85333 17.86 6.72C18.0333 6.48 18.2667 6.27333 18.56 6.1C18.7733 5.95333 18.9933 5.86 19.22 5.82C19.4733 5.79333 19.6933 5.84667 19.88 5.98C19.96 6.03333 20.0333 6.08 20.1 6.12C20.18 6.16 20.2467 6.20667 20.3 6.26C20.4067 6.38 20.4933 6.52667 20.56 6.7Z" fill="white"/>
<path d="M3.953 24.768C3.86433 24.712 3.764 24.6677 3.652 24.635C3.54467 24.6023 3.43267 24.572 3.316 24.544C3.204 24.516 3.09433 24.4857 2.987 24.453C2.87967 24.4157 2.78167 24.3643 2.693 24.299C2.50167 24.1543 2.38967 23.977 2.357 23.767C2.329 23.5523 2.37567 23.3377 2.497 23.123C2.56233 23.011 2.64867 22.92 2.756 22.85C2.86333 22.7753 2.98 22.7193 3.106 22.682C3.23667 22.64 3.36967 22.6167 3.505 22.612C3.64033 22.6073 3.76867 22.6143 3.89 22.633C3.96933 22.647 4.05333 22.668 4.142 22.696C4.23067 22.7193 4.31233 22.752 4.387 22.794C4.46633 22.836 4.53633 22.8897 4.597 22.955C4.66233 23.0157 4.709 23.0927 4.737 23.186C4.75567 23.2467 4.758 23.305 4.744 23.361C4.73467 23.417 4.71133 23.4637 4.674 23.501C4.64133 23.5383 4.597 23.5663 4.541 23.585C4.48967 23.6037 4.43367 23.6083 4.373 23.599C4.303 23.585 4.23767 23.564 4.177 23.536C4.11633 23.508 4.05567 23.4777 3.995 23.445C3.93433 23.4123 3.87133 23.3843 3.806 23.361C3.74533 23.3377 3.68 23.326 3.61 23.326C3.50267 23.3213 3.414 23.34 3.344 23.382C3.274 23.424 3.225 23.4753 3.197 23.536C3.17367 23.5967 3.176 23.662 3.204 23.732C3.23667 23.802 3.302 23.8627 3.4 23.914C3.48867 23.9607 3.58667 23.998 3.694 24.026C3.80133 24.054 3.90633 24.082 4.009 24.11C4.11633 24.138 4.219 24.1707 4.317 24.208C4.41967 24.2453 4.51067 24.2967 4.59 24.362C4.744 24.488 4.83733 24.635 4.87 24.803C4.90733 24.971 4.898 25.1367 4.842 25.3C4.786 25.4633 4.688 25.608 4.548 25.734C4.41267 25.86 4.25167 25.944 4.065 25.986C3.92967 26.014 3.78267 26.028 3.624 26.028C3.47 26.028 3.316 26.0117 3.162 25.979C3.01267 25.9463 2.868 25.895 2.728 25.825C2.59267 25.755 2.47833 25.6663 2.385 25.559C2.31967 25.4843 2.28467 25.4003 2.28 25.307C2.28 25.209 2.29867 25.125 2.336 25.055C2.378 24.9803 2.43633 24.929 2.511 24.901C2.58567 24.873 2.66967 24.8893 2.763 24.95C2.83767 25.0013 2.92633 25.0527 3.029 25.104C3.13167 25.1507 3.23433 25.188 3.337 25.216C3.43967 25.244 3.53767 25.258 3.631 25.258C3.729 25.258 3.813 25.237 3.883 25.195C3.98567 25.1297 4.03933 25.055 4.044 24.971C4.04867 24.8823 4.01833 24.8147 3.953 24.768ZM8.06271 23.305C8.10004 23.3703 8.11871 23.4403 8.11871 23.515C8.12338 23.5897 8.10704 23.6597 8.06971 23.725C8.02771 23.809 7.96704 23.8673 7.88771 23.9C7.81304 23.928 7.72904 23.9303 7.63571 23.907C7.59371 23.8977 7.55638 23.8813 7.52371 23.858C7.49104 23.8347 7.45604 23.8113 7.41871 23.788C7.38604 23.76 7.34638 23.7343 7.29971 23.711C7.25771 23.6877 7.20171 23.6713 7.13171 23.662C7.06171 23.6527 6.98471 23.6527 6.90071 23.662C6.82138 23.6713 6.74904 23.69 6.68371 23.718C6.58104 23.7693 6.49938 23.8487 6.43871 23.956C6.37804 24.0587 6.33838 24.1707 6.31971 24.292C6.30104 24.4087 6.30338 24.5277 6.32671 24.649C6.35471 24.7703 6.40604 24.873 6.48071 24.957C6.53671 25.0223 6.60904 25.076 6.69771 25.118C6.79104 25.16 6.87971 25.1857 6.96371 25.195C7.04304 25.2043 7.12238 25.2043 7.20171 25.195C7.28104 25.181 7.35804 25.1623 7.43271 25.139C7.48871 25.1157 7.55171 25.0853 7.62171 25.048C7.69171 25.006 7.75938 24.9803 7.82471 24.971C7.90871 24.971 7.97404 24.9943 8.02071 25.041C8.06738 25.083 8.10004 25.1367 8.11871 25.202C8.13738 25.2627 8.13971 25.328 8.12571 25.398C8.11638 25.468 8.09071 25.5287 8.04871 25.58C7.99271 25.65 7.91338 25.7177 7.81071 25.783C7.70804 25.8437 7.61004 25.888 7.51671 25.916C7.40471 25.9533 7.27871 25.9743 7.13871 25.979C7.00338 25.9837 6.87504 25.979 6.75371 25.965C6.69771 25.9557 6.63938 25.944 6.57871 25.93C6.51804 25.916 6.45971 25.8997 6.40371 25.881C6.19838 25.8063 6.02571 25.7013 5.88571 25.566C5.75038 25.426 5.64538 25.2697 5.57071 25.097C5.50071 24.9243 5.46104 24.74 5.45171 24.544C5.44238 24.348 5.46571 24.1543 5.52171 23.963C5.57304 23.781 5.63604 23.627 5.71071 23.501C5.79004 23.375 5.88104 23.2723 5.98371 23.193C6.09104 23.109 6.21004 23.0437 6.34071 22.997C6.47138 22.9457 6.61604 22.9013 6.77471 22.864C6.93804 22.8313 7.11071 22.8313 7.29271 22.864C7.47471 22.8967 7.63804 22.9573 7.78271 23.046C7.89471 23.1067 7.98804 23.193 8.06271 23.305ZM11.4221 24.621C11.4268 24.7143 11.4291 24.8123 11.4291 24.915C11.4291 25.013 11.4268 25.104 11.4221 25.188C11.4174 25.314 11.4104 25.4307 11.4011 25.538C11.3918 25.6407 11.3731 25.7293 11.3451 25.804C11.3171 25.874 11.2728 25.9277 11.2121 25.965C11.1561 25.9977 11.0768 26.007 10.9741 25.993C10.8668 25.979 10.7898 25.9277 10.7431 25.839C10.6964 25.7503 10.6638 25.65 10.6451 25.538C10.6311 25.4213 10.6264 25.3047 10.6311 25.188C10.6358 25.0713 10.6358 24.9803 10.6311 24.915C10.6264 24.8123 10.6218 24.6957 10.6171 24.565C10.6171 24.4297 10.6031 24.3037 10.5751 24.187C10.5518 24.0657 10.5098 23.963 10.4491 23.879C10.3884 23.795 10.2974 23.7507 10.1761 23.746C10.0221 23.7367 9.90311 23.7483 9.81911 23.781C9.73978 23.8137 9.68144 23.8627 9.64411 23.928C9.60678 23.9887 9.58344 24.0633 9.57411 24.152C9.56944 24.2407 9.56011 24.3363 9.54611 24.439L9.53911 24.712V25.223C9.53911 25.307 9.53678 25.3957 9.53211 25.489C9.53211 25.5777 9.51811 25.6593 9.49011 25.734C9.46211 25.8087 9.41778 25.8717 9.35711 25.923C9.30111 25.9743 9.21711 26 9.10511 26C8.96511 26 8.86011 25.9557 8.79011 25.867C8.72478 25.7737 8.69211 25.6593 8.69211 25.524V21.499C8.69211 21.471 8.69211 21.4453 8.69211 21.422C8.69678 21.394 8.70144 21.366 8.70611 21.338C8.71544 21.31 8.72244 21.2843 8.72711 21.261C8.73178 21.233 8.73878 21.2073 8.74811 21.184C8.76211 21.1373 8.78544 21.1023 8.81811 21.079C8.84144 21.0557 8.86478 21.037 8.88811 21.023C8.91144 21.009 8.93711 20.9997 8.96511 20.995C8.98844 20.9903 9.01411 20.988 9.04211 20.988C9.07011 20.9833 9.09811 20.981 9.12611 20.981C9.19611 20.981 9.26378 21.002 9.32911 21.044C9.35711 21.0627 9.38278 21.0837 9.40611 21.107C9.42944 21.1257 9.44811 21.1537 9.46211 21.191C9.49944 21.2797 9.51811 21.3637 9.51811 21.443C9.52278 21.4663 9.52511 21.5013 9.52511 21.548C9.52978 21.59 9.53211 21.6343 9.53211 21.681C9.53211 21.7277 9.53211 21.7743 9.53211 21.821C9.53678 21.863 9.53911 21.8957 9.53911 21.919V21.954C9.54378 22.1033 9.54611 22.255 9.54611 22.409C9.54611 22.563 9.54611 22.7193 9.54611 22.878V22.997C9.74211 22.9317 9.94744 22.9013 10.1621 22.906C10.3768 22.906 10.5681 22.948 10.7361 23.032C10.9088 23.1207 11.0394 23.221 11.1281 23.333C11.2214 23.445 11.2891 23.5687 11.3311 23.704C11.3731 23.8393 11.3964 23.984 11.4011 24.138C11.4104 24.292 11.4174 24.453 11.4221 24.621ZM12.89 22.836C13.044 22.7613 13.205 22.7077 13.373 22.675C13.541 22.6423 13.7067 22.6353 13.87 22.654C14.038 22.6727 14.199 22.717 14.353 22.787C14.5117 22.857 14.6564 22.955 14.787 23.081C14.8944 23.1883 14.9877 23.319 15.067 23.473C15.1464 23.6223 15.2047 23.7693 15.242 23.914C15.3214 24.1707 15.333 24.4297 15.277 24.691C15.221 24.9523 15.1254 25.195 14.99 25.419C14.9247 25.5217 14.843 25.615 14.745 25.699C14.6517 25.7783 14.5514 25.8437 14.444 25.895C14.304 25.9603 14.1524 26.0047 13.989 26.028C13.8257 26.056 13.667 26.063 13.513 26.049C13.233 26.035 12.9857 25.965 12.771 25.839C12.561 25.713 12.3907 25.552 12.26 25.356C12.134 25.16 12.05 24.9383 12.008 24.691C11.9707 24.439 11.987 24.1823 12.057 23.921C12.1317 23.641 12.239 23.4147 12.379 23.242C12.5237 23.0647 12.694 22.9293 12.89 22.836ZM13.1 23.774C13.03 23.8393 12.9764 23.921 12.939 24.019C12.9017 24.117 12.8784 24.2197 12.869 24.327C12.8597 24.4297 12.8667 24.5347 12.89 24.642C12.918 24.7447 12.96 24.838 13.016 24.922C13.0627 24.992 13.1467 25.0503 13.268 25.097C13.3894 25.1437 13.5154 25.1717 13.646 25.181C13.7954 25.1903 13.926 25.1507 14.038 25.062C14.15 24.9687 14.234 24.8543 14.29 24.719C14.3507 24.5837 14.3787 24.4367 14.374 24.278C14.3694 24.1193 14.3274 23.9747 14.248 23.844C14.192 23.7507 14.1127 23.683 14.01 23.641C13.912 23.5943 13.807 23.571 13.695 23.571C13.5877 23.5663 13.4804 23.5827 13.373 23.62C13.2657 23.6527 13.1747 23.704 13.1 23.774ZM16.7728 22.836C16.9268 22.7613 17.0878 22.7077 17.2558 22.675C17.4238 22.6423 17.5895 22.6353 17.7528 22.654C17.9208 22.6727 18.0818 22.717 18.2358 22.787C18.3945 22.857 18.5392 22.955 18.6698 23.081C18.7772 23.1883 18.8705 23.319 18.9498 23.473C19.0292 23.6223 19.0875 23.7693 19.1248 23.914C19.2042 24.1707 19.2158 24.4297 19.1598 24.691C19.1038 24.9523 19.0082 25.195 18.8728 25.419C18.8075 25.5217 18.7258 25.615 18.6278 25.699C18.5345 25.7783 18.4342 25.8437 18.3268 25.895C18.1868 25.9603 18.0352 26.0047 17.8718 26.028C17.7085 26.056 17.5498 26.063 17.3958 26.049C17.1158 26.035 16.8685 25.965 16.6538 25.839C16.4438 25.713 16.2735 25.552 16.1428 25.356C16.0168 25.16 15.9328 24.9383 15.8908 24.691C15.8535 24.439 15.8698 24.1823 15.9398 23.921C16.0145 23.641 16.1218 23.4147 16.2618 23.242C16.4065 23.0647 16.5768 22.9293 16.7728 22.836ZM16.9828 23.774C16.9128 23.8393 16.8592 23.921 16.8218 24.019C16.7845 24.117 16.7612 24.2197 16.7518 24.327C16.7425 24.4297 16.7495 24.5347 16.7728 24.642C16.8008 24.7447 16.8428 24.838 16.8988 24.922C16.9455 24.992 17.0295 25.0503 17.1508 25.097C17.2722 25.1437 17.3982 25.1717 17.5288 25.181C17.6782 25.1903 17.8088 25.1507 17.9208 25.062C18.0328 24.9687 18.1168 24.8543 18.1728 24.719C18.2335 24.5837 18.2615 24.4367 18.2568 24.278C18.2522 24.1193 18.2102 23.9747 18.1308 23.844C18.0748 23.7507 17.9955 23.683 17.8928 23.641C17.7948 23.5943 17.6898 23.571 17.5778 23.571C17.4705 23.5663 17.3632 23.5827 17.2558 23.62C17.1485 23.6527 17.0575 23.704 16.9828 23.774ZM20.7589 25.44C20.7542 25.4633 20.7495 25.4867 20.7449 25.51C20.7449 25.5287 20.7449 25.5497 20.7449 25.573L20.7029 25.72C20.6935 25.7387 20.6865 25.7503 20.6819 25.755L20.6609 25.797C20.6375 25.8483 20.5955 25.8903 20.5349 25.923C20.4229 25.979 20.3039 25.993 20.1779 25.965C20.0985 25.9557 20.0355 25.9323 19.9889 25.895C19.9422 25.8623 19.9095 25.8227 19.8909 25.776C19.8722 25.7293 19.8582 25.6827 19.8489 25.636C19.8349 25.5893 19.8279 25.5473 19.8279 25.51V21.59C19.8279 21.5573 19.8279 21.5293 19.8279 21.506C19.8325 21.478 19.8372 21.4523 19.8419 21.429C19.8465 21.3963 19.8512 21.3683 19.8559 21.345C19.8652 21.3217 19.8745 21.296 19.8839 21.268C19.8979 21.2213 19.9235 21.184 19.9609 21.156C20.0169 21.114 20.0705 21.0907 20.1219 21.086C20.1545 21.0767 20.1849 21.072 20.2129 21.072C20.2409 21.0673 20.2735 21.065 20.3109 21.065C20.3762 21.065 20.4509 21.0837 20.5349 21.121C20.6002 21.1583 20.6469 21.2097 20.6749 21.275C20.7215 21.3683 20.7449 21.4547 20.7449 21.534C20.7495 21.5807 20.7519 21.6507 20.7519 21.744C20.7565 21.8373 20.7589 21.9073 20.7589 21.954V21.982C20.7682 22.1313 20.7729 22.276 20.7729 22.416C20.7729 22.5513 20.7705 22.7007 20.7659 22.864C20.7659 23.0227 20.7635 23.1767 20.7589 23.326C20.7589 23.4707 20.7589 23.6153 20.7589 23.76V25.23C20.7589 25.2487 20.7589 25.2673 20.7589 25.286C20.7635 25.3 20.7659 25.3163 20.7659 25.335C20.7659 25.3817 20.7635 25.4167 20.7589 25.44Z" fill="white"/>
<path d="M20.535 13.22C20.865 13.06 21.21 12.945 21.57 12.875C21.93 12.805 22.285 12.79 22.635 12.83C22.995 12.87 23.34 12.965 23.67 13.115C24.01 13.265 24.32 13.475 24.6 13.745C24.83 13.975 25.03 14.255 25.2 14.585C25.37 14.905 25.495 15.22 25.575 15.53C25.745 16.08 25.77 16.635 25.65 17.195C25.53 17.755 25.325 18.275 25.035 18.755C24.895 18.975 24.72 19.175 24.51 19.355C24.31 19.525 24.095 19.665 23.865 19.775C23.565 19.915 23.24 20.01 22.89 20.06C22.54 20.12 22.2 20.135 21.87 20.105C21.27 20.075 20.74 19.925 20.28 19.655C19.83 19.385 19.465 19.04 19.185 18.62C18.915 18.2 18.735 17.725 18.645 17.195C18.565 16.655 18.6 16.105 18.75 15.545C18.91 14.945 19.14 14.46 19.44 14.09C19.75 13.71 20.115 13.42 20.535 13.22ZM20.985 15.23C20.835 15.37 20.72 15.545 20.64 15.755C20.56 15.965 20.51 16.185 20.49 16.415C20.47 16.635 20.485 16.86 20.535 17.09C20.595 17.31 20.685 17.51 20.805 17.69C20.905 17.84 21.085 17.965 21.345 18.065C21.605 18.165 21.875 18.225 22.155 18.245C22.475 18.265 22.755 18.18 22.995 17.99C23.235 17.79 23.415 17.545 23.535 17.255C23.665 16.965 23.725 16.65 23.715 16.31C23.705 15.97 23.615 15.66 23.445 15.38C23.325 15.18 23.155 15.035 22.935 14.945C22.725 14.845 22.5 14.795 22.26 14.795C22.03 14.785 21.8 14.82 21.57 14.9C21.34 14.97 21.145 15.08 20.985 15.23Z" fill="white"/>
<path d="M23.574 23.044C23.574 22.932 23.574 22.806 23.574 22.666C23.574 22.5167 23.5787 22.3673 23.588 22.218C23.5973 22.0593 23.6113 21.91 23.63 21.77C23.658 21.6207 23.6953 21.49 23.742 21.378C23.8167 21.21 23.9333 21.098 24.092 21.042C24.2507 20.9767 24.4233 20.9487 24.61 20.958C24.806 20.958 24.96 20.9907 25.072 21.056C25.184 21.1213 25.268 21.21 25.324 21.322C25.38 21.4247 25.4127 21.546 25.422 21.686C25.4407 21.8167 25.45 21.9567 25.45 22.106C25.534 21.9567 25.646 21.8353 25.786 21.742C25.9353 21.6487 26.0847 21.574 26.234 21.518C26.3833 21.462 26.5187 21.4247 26.64 21.406C26.7613 21.378 26.8313 21.364 26.85 21.364C27.0833 21.3453 27.2933 21.3407 27.48 21.35C27.676 21.3593 27.8907 21.4013 28.124 21.476C28.2733 21.532 28.4273 21.6113 28.586 21.714C28.7447 21.8073 28.8847 21.9193 29.006 22.05C29.1273 22.1807 29.2067 22.3253 29.244 22.484C29.2907 22.6333 29.272 22.792 29.188 22.96C29.0573 23.1933 28.9127 23.31 28.754 23.31C28.5953 23.3007 28.4227 23.2727 28.236 23.226C28.1333 23.2073 28.012 23.1653 27.872 23.1C27.732 23.0347 27.6107 22.9927 27.508 22.974C27.1907 22.9273 26.9107 22.9507 26.668 23.044C26.4253 23.1373 26.2153 23.2493 26.038 23.38C25.8327 23.5387 25.6553 23.7207 25.506 23.926V25.942C25.506 26.194 25.5013 26.4553 25.492 26.726C25.492 26.9967 25.4547 27.244 25.38 27.468C25.3147 27.6827 25.198 27.86 25.03 28C24.8713 28.1307 24.638 28.1867 24.33 28.168C24.162 28.1587 24.0127 28.0793 23.882 27.93C23.7513 27.7713 23.672 27.6173 23.644 27.468C23.6253 27.328 23.6113 27.16 23.602 26.964C23.5927 26.768 23.5833 26.5627 23.574 26.348C23.574 26.1333 23.574 25.9187 23.574 25.704C23.574 25.48 23.574 25.2747 23.574 25.088V23.044Z" fill="white"/>
<path d="M33.824 24.32C34.0587 24.5653 34.2293 24.7467 34.336 24.864C34.4533 24.9707 34.5333 25.0507 34.576 25.104C34.6293 25.1573 34.6667 25.1893 34.688 25.2C34.7093 25.2107 34.7467 25.2427 34.8 25.296C34.8533 25.3493 34.9387 25.4347 35.056 25.552C35.1733 25.6587 35.3493 25.8347 35.584 26.08C35.776 26.272 35.9307 26.496 36.048 26.752C36.176 26.9973 36.1653 27.264 36.016 27.552C35.9307 27.7013 35.8347 27.808 35.728 27.872C35.6213 27.9253 35.504 27.9467 35.376 27.936C35.2587 27.9253 35.1307 27.888 34.992 27.824C34.864 27.76 34.736 27.68 34.608 27.584C34.3627 27.4027 34.128 27.1947 33.904 26.96C33.68 26.7147 33.4987 26.528 33.36 26.4C33.264 26.304 33.2053 26.24 33.184 26.208C33.1627 26.1867 33.1413 26.1707 33.12 26.16C33.0987 26.1387 33.0773 26.1173 33.056 26.096C32.9813 26.0213 32.9013 25.9467 32.816 25.872C32.7307 25.7973 32.6453 25.7173 32.56 25.632V26.256C32.56 26.3733 32.5653 26.4587 32.576 26.512C32.576 26.6187 32.5707 26.6987 32.56 26.752C32.528 26.8693 32.512 26.9813 32.512 27.088C32.5013 27.1413 32.4907 27.1947 32.48 27.248C32.4693 27.2907 32.4533 27.3387 32.432 27.392C32.4213 27.4133 32.4107 27.4293 32.4 27.44C32.4 27.4507 32.4 27.4667 32.4 27.488C32.3893 27.5093 32.3787 27.5253 32.368 27.536C32.368 27.5467 32.3627 27.5627 32.352 27.584C32.2987 27.6907 32.2133 27.792 32.096 27.888C31.8933 28.0053 31.6427 28.0373 31.344 27.984C31.184 27.952 31.0613 27.8933 30.976 27.808C30.88 27.744 30.816 27.6533 30.784 27.536C30.7627 27.4827 30.7413 27.4293 30.72 27.376C30.7093 27.312 30.6933 27.2533 30.672 27.2C30.6507 27.1467 30.64 27.0987 30.64 27.056C30.64 27.0027 30.64 26.96 30.64 26.928V17.824C30.64 17.76 30.64 17.696 30.64 17.632C30.64 17.568 30.6453 17.504 30.656 17.44C30.6667 17.376 30.6773 17.3173 30.688 17.264C30.7093 17.2 30.7307 17.1413 30.752 17.088C30.7947 16.9813 30.848 16.896 30.912 16.832C30.9653 16.7787 31.0187 16.7413 31.072 16.72C31.136 16.688 31.1947 16.6613 31.248 16.64C31.3013 16.6293 31.36 16.624 31.424 16.624C31.4987 16.6133 31.568 16.608 31.632 16.608C31.7813 16.608 31.9307 16.6507 32.08 16.736C32.2187 16.832 32.32 16.9547 32.384 17.104C32.4693 17.3067 32.512 17.504 32.512 17.696C32.5227 17.8027 32.5333 17.968 32.544 18.192C32.5547 18.4053 32.56 18.5653 32.56 18.672V18.736C32.5707 19.088 32.576 19.424 32.576 19.744C32.576 20.064 32.576 20.4107 32.576 20.784C32.5653 21.1573 32.56 21.5147 32.56 21.856C32.56 22.1867 32.56 22.5173 32.56 22.848V23.024C32.6453 22.9387 32.7307 22.8587 32.816 22.784C32.9013 22.7093 32.9813 22.6293 33.056 22.544C33.0987 22.512 33.1413 22.4747 33.184 22.432L33.36 22.256C33.4987 22.1173 33.68 21.9307 33.904 21.696C34.128 21.4507 34.3627 21.2373 34.608 21.056C34.8747 20.864 35.1307 20.7467 35.376 20.704C35.632 20.6613 35.8453 20.7893 36.016 21.088C36.1653 21.376 36.176 21.648 36.048 21.904C35.9307 22.1493 35.776 22.3787 35.584 22.592C35.3493 22.8373 35.1733 23.0187 35.056 23.136C34.9387 23.2427 34.8533 23.3227 34.8 23.376C34.7467 23.4187 34.7093 23.4453 34.688 23.456C34.6667 23.4667 34.6293 23.4987 34.576 23.552C34.5333 23.5947 34.4533 23.6747 34.336 23.792C34.2293 23.8987 34.0587 24.0747 33.824 24.32Z" fill="white"/>
</svg>
