<svg width="219" height="40" viewBox="0 0 219 40" fill="none" xmlns="http://www.w3.org/2000/svg">
<path d="M23.12 10.4C23.1467 10.5333 23.1467 10.6667 23.12 10.8C23.12 10.9333 23.08 11.08 23 11.24C22.8933 11.6133 22.7733 11.9467 22.64 12.24C22.48 12.6133 22.28 12.9333 22.04 13.2C21.9333 13.36 21.8267 13.52 21.72 13.68C21.64 13.8133 21.56 13.9467 21.48 14.08L20.96 14.76L15.84 22.16L14.92 23.32V33.96C14.8667 34.0933 14.84 34.2267 14.84 34.36C14.84 34.4933 14.8267 34.64 14.8 34.8C14.7467 34.9333 14.7067 35.0667 14.68 35.2C14.6533 35.3067 14.6133 35.4267 14.56 35.56C14.5067 35.6667 14.48 35.7467 14.48 35.8C14.4533 35.8533 14.4267 35.8933 14.4 35.92C14.4 35.9467 14.3867 35.9867 14.36 36.04C14.2 36.3067 13.9733 36.5467 13.68 36.76C13.0933 37.0533 12.4267 37.12 11.68 36.96C11.2533 36.9067 10.9333 36.7733 10.72 36.56C10.5867 36.48 10.48 36.3867 10.4 36.28C10.32 36.1733 10.24 36.0533 10.16 35.92C10.1067 35.76 10.0533 35.6133 10 35.48C9.94667 35.3467 9.90667 35.2133 9.88 35.08C9.82667 34.9467 9.8 34.8267 9.8 34.72C9.8 34.5867 9.8 34.4667 9.8 34.36V23.44L8.92 22.08L3.72 14.72L3.28 14C3.12 13.76 2.92 13.48 2.68 13.16C2.46667 12.8667 2.28 12.5467 2.12 12.2C2.01333 12.04 1.92 11.88 1.84 11.72C1.78667 11.5333 1.73333 11.3467 1.68 11.16C1.6 10.8933 1.58667 10.6267 1.64 10.36C1.72 10.0133 1.88 9.72 2.12 9.48C2.38667 9.24 2.66667 9.05333 2.96 8.92C3.33333 8.65333 3.76 8.54667 4.24 8.6C4.53333 8.6 4.78667 8.65333 5 8.76C5.21333 8.86667 5.42667 8.98667 5.64 9.12C5.88 9.30666 6.10667 9.50666 6.32 9.72C6.56 9.93333 6.77333 10.16 6.96 10.4C7.17333 10.6667 7.37333 10.92 7.56 11.16C7.74667 11.3733 7.93333 11.6267 8.12 11.92L8.24 12.08C8.88 12.9333 9.48 13.76 10.04 14.56C10.6 15.3333 11.1867 16.1733 11.8 17.08C11.8533 17.1333 11.9333 17.24 12.04 17.4C12.1467 17.56 12.2667 17.7467 12.4 17.96C12.5067 17.7733 12.6 17.6133 12.68 17.48C12.7867 17.32 12.8667 17.2133 12.92 17.16C13.5333 16.2533 14.12 15.4 14.68 14.6C15.24 13.8 15.84 12.9733 16.48 12.12L16.56 11.96C16.7733 11.72 16.96 11.48 17.12 11.24C17.3067 10.9733 17.5067 10.7067 17.72 10.44C18.0667 9.96 18.5333 9.54666 19.12 9.2C19.5467 8.90667 19.9867 8.72 20.44 8.64C20.9467 8.58667 21.3867 8.69333 21.76 8.96C21.92 9.06667 22.0667 9.16 22.2 9.24C22.36 9.32 22.4933 9.41333 22.6 9.52C22.8133 9.76 22.9867 10.0533 23.12 10.4ZM26.8381 18.92C27.7181 18.4933 28.6381 18.1867 29.5981 18C30.5581 17.8133 31.5048 17.7733 32.4381 17.88C33.3981 17.9867 34.3181 18.24 35.1981 18.64C36.1048 19.04 36.9315 19.6 37.6781 20.32C38.2915 20.9333 38.8248 21.68 39.2781 22.56C39.7315 23.4133 40.0648 24.2533 40.2781 25.08C40.7315 26.5467 40.7981 28.0267 40.4781 29.52C40.1581 31.0133 39.6115 32.4 38.8381 33.68C38.4648 34.2667 37.9981 34.8 37.4381 35.28C36.9048 35.7333 36.3315 36.1067 35.7181 36.4C34.9181 36.7733 34.0515 37.0267 33.1181 37.16C32.1848 37.32 31.2781 37.36 30.3981 37.28C28.7981 37.2 27.3848 36.8 26.1581 36.08C24.9581 35.36 23.9848 34.44 23.2381 33.32C22.5181 32.2 22.0381 30.9333 21.7981 29.52C21.5848 28.08 21.6781 26.6133 22.0781 25.12C22.5048 23.52 23.1181 22.2267 23.9181 21.24C24.7448 20.2267 25.7181 19.4533 26.8381 18.92ZM28.0381 24.28C27.6381 24.6533 27.3315 25.12 27.1181 25.68C26.9048 26.24 26.7715 26.8267 26.7181 27.44C26.6648 28.0267 26.7048 28.6267 26.8381 29.24C26.9981 29.8267 27.2381 30.36 27.5581 30.84C27.8248 31.24 28.3048 31.5733 28.9981 31.84C29.6915 32.1067 30.4115 32.2667 31.1581 32.32C32.0115 32.3733 32.7581 32.1467 33.3981 31.64C34.0381 31.1067 34.5181 30.4533 34.8381 29.68C35.1848 28.9067 35.3448 28.0667 35.3181 27.16C35.2915 26.2533 35.0515 25.4267 34.5981 24.68C34.2781 24.1467 33.8248 23.76 33.2381 23.52C32.6781 23.2533 32.0781 23.12 31.4381 23.12C30.8248 23.0933 30.2115 23.1867 29.5981 23.4C28.9848 23.5867 28.4648 23.88 28.0381 24.28ZM43.9056 22.84C43.9056 22.52 43.9056 22.16 43.9056 21.76C43.9056 21.3333 43.919 20.9067 43.9456 20.48C43.9723 20.0267 44.0123 19.6 44.0656 19.2C44.1456 18.7733 44.2523 18.4 44.3856 18.08C44.599 17.6 44.9323 17.28 45.3856 17.12C45.839 16.9333 46.3323 16.8533 46.8656 16.88C47.4256 16.88 47.8656 16.9733 48.1856 17.16C48.5056 17.3467 48.7456 17.6 48.9056 17.92C49.0656 18.2133 49.159 18.56 49.1856 18.96C49.239 19.3333 49.2656 19.7333 49.2656 20.16C49.5056 19.7333 49.8256 19.3867 50.2256 19.12C50.6523 18.8533 51.079 18.64 51.5056 18.48C51.9323 18.32 52.319 18.2133 52.6656 18.16C53.0123 18.08 53.2123 18.04 53.2656 18.04C53.9323 17.9867 54.5323 17.9733 55.0656 18C55.6256 18.0267 56.239 18.1467 56.9056 18.36C57.3323 18.52 57.7723 18.7467 58.2256 19.04C58.679 19.3067 59.079 19.6267 59.4256 20C59.7723 20.3733 59.999 20.7867 60.1056 21.24C60.239 21.6667 60.1856 22.12 59.9456 22.6C59.5723 23.2667 59.159 23.6 58.7056 23.6C58.2523 23.5733 57.759 23.4933 57.2256 23.36C56.9323 23.3067 56.5856 23.1867 56.1856 23C55.7856 22.8133 55.439 22.6933 55.1456 22.64C54.239 22.5067 53.439 22.5733 52.7456 22.84C52.0523 23.1067 51.4523 23.4267 50.9456 23.8C50.359 24.2533 49.8523 24.7733 49.4256 25.36V31.12C49.4256 31.84 49.4123 32.5867 49.3856 33.36C49.3856 34.1333 49.279 34.84 49.0656 35.48C48.879 36.0933 48.5456 36.6 48.0656 37C47.6123 37.3733 46.9456 37.5333 46.0656 37.48C45.5856 37.4533 45.159 37.2267 44.7856 36.8C44.4123 36.3467 44.1856 35.9067 44.1056 35.48C44.0523 35.08 44.0123 34.6 43.9856 34.04C43.959 33.48 43.9323 32.8933 43.9056 32.28C43.9056 31.6667 43.9056 31.0533 43.9056 30.44C43.9056 29.8 43.9056 29.2133 43.9056 28.68V22.84ZM71.3569 27.8C71.9435 28.4133 72.3702 28.8667 72.6369 29.16C72.9302 29.4267 73.1302 29.6267 73.2369 29.76C73.3702 29.8933 73.4635 29.9733 73.5169 30C73.5702 30.0267 73.6635 30.1067 73.7969 30.24C73.9302 30.3733 74.1435 30.5867 74.4369 30.88C74.7302 31.1467 75.1702 31.5867 75.7569 32.2C76.2369 32.68 76.6235 33.24 76.9169 33.88C77.2369 34.4933 77.2102 35.16 76.8369 35.88C76.6235 36.2533 76.3835 36.52 76.1169 36.68C75.8502 36.8133 75.5569 36.8667 75.2369 36.84C74.9435 36.8133 74.6235 36.72 74.2769 36.56C73.9569 36.4 73.6369 36.2 73.3169 35.96C72.7035 35.5067 72.1169 34.9867 71.5569 34.4C70.9969 33.7867 70.5435 33.32 70.1969 33C69.9569 32.76 69.8102 32.6 69.7569 32.52C69.7035 32.4667 69.6502 32.4267 69.5969 32.4C69.5435 32.3467 69.4902 32.2933 69.4369 32.24C69.2502 32.0533 69.0502 31.8667 68.8369 31.68C68.6235 31.4933 68.4102 31.2933 68.1969 31.08V32.64C68.1969 32.9333 68.2102 33.1467 68.2369 33.28C68.2369 33.5467 68.2235 33.7467 68.1969 33.88C68.1169 34.1733 68.0769 34.4533 68.0769 34.72C68.0502 34.8533 68.0235 34.9867 67.9969 35.12C67.9702 35.2267 67.9302 35.3467 67.8769 35.48C67.8502 35.5333 67.8235 35.5733 67.7969 35.6C67.7969 35.6267 67.7969 35.6667 67.7969 35.72C67.7702 35.7733 67.7435 35.8133 67.7169 35.84C67.7169 35.8667 67.7035 35.9067 67.6769 35.96C67.5435 36.2267 67.3302 36.48 67.0369 36.72C66.5302 37.0133 65.9035 37.0933 65.1569 36.96C64.7569 36.88 64.4502 36.7333 64.2369 36.52C63.9969 36.36 63.8369 36.1333 63.7569 35.84C63.7035 35.7067 63.6502 35.5733 63.5969 35.44C63.5702 35.28 63.5302 35.1333 63.4769 35C63.4235 34.8667 63.3969 34.7467 63.3969 34.64C63.3969 34.5067 63.3969 34.4 63.3969 34.32V11.56C63.3969 11.4 63.3969 11.24 63.3969 11.08C63.3969 10.92 63.4102 10.76 63.4369 10.6C63.4635 10.44 63.4902 10.2933 63.5169 10.16C63.5702 10 63.6235 9.85333 63.6769 9.72C63.7835 9.45333 63.9169 9.24 64.0769 9.08C64.2102 8.94667 64.3435 8.85333 64.4769 8.8C64.6369 8.72 64.7835 8.65333 64.9169 8.6C65.0502 8.57333 65.1969 8.56 65.3569 8.56C65.5435 8.53333 65.7169 8.52 65.8769 8.52C66.2502 8.52 66.6235 8.62667 66.9969 8.84C67.3435 9.08 67.5969 9.38666 67.7569 9.76C67.9702 10.2667 68.0769 10.76 68.0769 11.24C68.1035 11.5067 68.1302 11.92 68.1569 12.48C68.1835 13.0133 68.1969 13.4133 68.1969 13.68V13.84C68.2235 14.72 68.2369 15.56 68.2369 16.36C68.2369 17.16 68.2369 18.0267 68.2369 18.96C68.2102 19.8933 68.1969 20.7867 68.1969 21.64C68.1969 22.4667 68.1969 23.2933 68.1969 24.12V24.56C68.4102 24.3467 68.6235 24.1467 68.8369 23.96C69.0502 23.7733 69.2502 23.5733 69.4369 23.36C69.5435 23.28 69.6502 23.1867 69.7569 23.08L70.1969 22.64C70.5435 22.2933 70.9969 21.8267 71.5569 21.24C72.1169 20.6267 72.7035 20.0933 73.3169 19.64C73.9835 19.16 74.6235 18.8667 75.2369 18.76C75.8769 18.6533 76.4102 18.9733 76.8369 19.72C77.2102 20.44 77.2369 21.12 76.9169 21.76C76.6235 22.3733 76.2369 22.9467 75.7569 23.48C75.1702 24.0933 74.7302 24.5467 74.4369 24.84C74.1435 25.1067 73.9302 25.3067 73.7969 25.44C73.6635 25.5467 73.5702 25.6133 73.5169 25.64C73.4635 25.6667 73.3702 25.7467 73.2369 25.88C73.1302 25.9867 72.9302 26.1867 72.6369 26.48C72.3702 26.7467 71.9435 27.1867 71.3569 27.8ZM101.902 29.96C101.396 29.64 100.822 29.3867 100.182 29.2C99.5689 29.0133 98.9289 28.84 98.2622 28.68C97.6222 28.52 96.9955 28.3467 96.3822 28.16C95.7689 27.9467 95.2089 27.6533 94.7022 27.28C93.6089 26.4533 92.9689 25.44 92.7822 24.24C92.6222 23.0133 92.8889 21.7867 93.5822 20.56C93.9555 19.92 94.4489 19.4 95.0622 19C95.6755 18.5733 96.3422 18.2533 97.0622 18.04C97.8089 17.8 98.5689 17.6667 99.3422 17.64C100.116 17.6133 100.849 17.6533 101.542 17.76C101.996 17.84 102.476 17.96 102.982 18.12C103.489 18.2533 103.956 18.44 104.382 18.68C104.836 18.92 105.236 19.2267 105.582 19.6C105.956 19.9467 106.222 20.3867 106.382 20.92C106.489 21.2667 106.502 21.6 106.422 21.92C106.369 22.24 106.236 22.5067 106.022 22.72C105.836 22.9333 105.582 23.0933 105.262 23.2C104.969 23.3067 104.649 23.3333 104.302 23.28C103.902 23.2 103.529 23.08 103.182 22.92C102.836 22.76 102.489 22.5867 102.142 22.4C101.796 22.2133 101.436 22.0533 101.062 21.92C100.716 21.7867 100.342 21.72 99.9422 21.72C99.3289 21.6933 98.8222 21.8 98.4222 22.04C98.0222 22.28 97.7422 22.5733 97.5822 22.92C97.4489 23.2667 97.4622 23.64 97.6222 24.04C97.8089 24.44 98.1822 24.7867 98.7422 25.08C99.2489 25.3467 99.8089 25.56 100.422 25.72C101.036 25.88 101.636 26.04 102.222 26.2C102.836 26.36 103.422 26.5467 103.982 26.76C104.569 26.9733 105.089 27.2667 105.542 27.64C106.422 28.36 106.956 29.2 107.142 30.16C107.356 31.12 107.302 32.0667 106.982 33C106.662 33.9333 106.102 34.76 105.302 35.48C104.529 36.2 103.609 36.68 102.542 36.92C101.769 37.08 100.929 37.16 100.022 37.16C99.1422 37.16 98.2622 37.0667 97.3822 36.88C96.5289 36.6933 95.7022 36.4 94.9022 36C94.1289 35.6 93.4755 35.0933 92.9422 34.48C92.5689 34.0533 92.3689 33.5733 92.3422 33.04C92.3422 32.48 92.4489 32 92.6622 31.6C92.9022 31.1733 93.2355 30.88 93.6622 30.72C94.0889 30.56 94.5689 30.6533 95.1022 31C95.5289 31.2933 96.0355 31.5867 96.6222 31.88C97.2089 32.1467 97.7955 32.36 98.3822 32.52C98.9689 32.68 99.5289 32.76 100.062 32.76C100.622 32.76 101.102 32.64 101.502 32.4C102.089 32.0267 102.396 31.6 102.422 31.12C102.449 30.6133 102.276 30.2267 101.902 29.96ZM125.386 21.6C125.6 21.9733 125.706 22.3733 125.706 22.8C125.733 23.2267 125.64 23.6267 125.426 24C125.186 24.48 124.84 24.8133 124.386 25C123.96 25.16 123.48 25.1733 122.946 25.04C122.706 24.9867 122.493 24.8933 122.306 24.76C122.12 24.6267 121.92 24.4933 121.706 24.36C121.52 24.2 121.293 24.0533 121.026 23.92C120.786 23.7867 120.466 23.6933 120.066 23.64C119.666 23.5867 119.226 23.5867 118.746 23.64C118.293 23.6933 117.88 23.8 117.506 23.96C116.92 24.2533 116.453 24.7067 116.106 25.32C115.76 25.9067 115.533 26.5467 115.426 27.24C115.32 27.9067 115.333 28.5867 115.466 29.28C115.626 29.9733 115.92 30.56 116.346 31.04C116.666 31.4133 117.08 31.72 117.586 31.96C118.12 32.2 118.626 32.3467 119.106 32.4C119.56 32.4533 120.013 32.4533 120.466 32.4C120.92 32.32 121.36 32.2133 121.786 32.08C122.106 31.9467 122.466 31.7733 122.866 31.56C123.266 31.32 123.653 31.1733 124.026 31.12C124.506 31.12 124.88 31.2533 125.146 31.52C125.413 31.76 125.6 32.0667 125.706 32.44C125.813 32.7867 125.826 33.16 125.746 33.56C125.693 33.96 125.546 34.3067 125.306 34.6C124.986 35 124.533 35.3867 123.946 35.76C123.36 36.1067 122.8 36.36 122.266 36.52C121.626 36.7333 120.906 36.8533 120.106 36.88C119.333 36.9067 118.6 36.88 117.906 36.8C117.586 36.7467 117.253 36.68 116.906 36.6C116.56 36.52 116.226 36.4267 115.906 36.32C114.733 35.8933 113.746 35.2933 112.946 34.52C112.173 33.72 111.573 32.8267 111.146 31.84C110.746 30.8533 110.52 29.8 110.466 28.68C110.413 27.56 110.546 26.4533 110.866 25.36C111.16 24.32 111.52 23.44 111.946 22.72C112.4 22 112.92 21.4133 113.506 20.96C114.12 20.48 114.8 20.1067 115.546 19.84C116.293 19.5467 117.12 19.2933 118.026 19.08C118.96 18.8933 119.946 18.8933 120.986 19.08C122.026 19.2667 122.96 19.6133 123.786 20.12C124.426 20.4667 124.96 20.96 125.386 21.6ZM144.583 29.12C144.609 29.6533 144.623 30.2133 144.623 30.8C144.623 31.36 144.609 31.88 144.583 32.36C144.556 33.08 144.516 33.7467 144.463 34.36C144.409 34.9467 144.303 35.4533 144.143 35.88C143.983 36.28 143.729 36.5867 143.383 36.8C143.063 36.9867 142.609 37.04 142.023 36.96C141.409 36.88 140.969 36.5867 140.703 36.08C140.436 35.5733 140.249 35 140.143 34.36C140.063 33.6933 140.036 33.0267 140.063 32.36C140.089 31.6933 140.089 31.1733 140.063 30.8C140.036 30.2133 140.009 29.5467 139.983 28.8C139.983 28.0267 139.903 27.3067 139.743 26.64C139.609 25.9467 139.369 25.36 139.023 24.88C138.676 24.4 138.156 24.1467 137.463 24.12C136.583 24.0667 135.903 24.1333 135.423 24.32C134.969 24.5067 134.636 24.7867 134.423 25.16C134.209 25.5067 134.076 25.9333 134.023 26.44C133.996 26.9467 133.943 27.4933 133.863 28.08L133.823 29.64V32.56C133.823 33.04 133.809 33.5467 133.783 34.08C133.783 34.5867 133.703 35.0533 133.543 35.48C133.383 35.9067 133.129 36.2667 132.783 36.56C132.463 36.8533 131.983 37 131.343 37C130.543 37 129.943 36.7467 129.543 36.24C129.169 35.7067 128.983 35.0533 128.983 34.28V11.28C128.983 11.12 128.983 10.9733 128.983 10.84C129.009 10.68 129.036 10.52 129.063 10.36C129.116 10.2 129.156 10.0533 129.183 9.92C129.209 9.76 129.249 9.61333 129.303 9.48C129.383 9.21333 129.516 9.01333 129.703 8.88C129.836 8.74667 129.969 8.64 130.103 8.56C130.236 8.48 130.383 8.42666 130.543 8.4C130.676 8.37333 130.823 8.36 130.983 8.36C131.143 8.33333 131.303 8.32 131.463 8.32C131.863 8.32 132.249 8.44 132.623 8.68C132.783 8.78667 132.929 8.90666 133.063 9.04C133.196 9.14666 133.303 9.30666 133.383 9.52C133.596 10.0267 133.703 10.5067 133.703 10.96C133.729 11.0933 133.743 11.2933 133.743 11.56C133.769 11.8 133.783 12.0533 133.783 12.32C133.783 12.5867 133.783 12.8533 133.783 13.12C133.809 13.36 133.823 13.5467 133.823 13.68V13.88C133.849 14.7333 133.863 15.6 133.863 16.48C133.863 17.36 133.863 18.2533 133.863 19.16V19.84C134.983 19.4667 136.156 19.2933 137.383 19.32C138.609 19.32 139.703 19.56 140.663 20.04C141.649 20.5467 142.396 21.12 142.903 21.76C143.436 22.4 143.823 23.1067 144.063 23.88C144.303 24.6533 144.436 25.48 144.463 26.36C144.516 27.24 144.556 28.16 144.583 29.12ZM152.971 18.92C153.851 18.4933 154.771 18.1867 155.731 18C156.691 17.8133 157.638 17.7733 158.571 17.88C159.531 17.9867 160.451 18.24 161.331 18.64C162.238 19.04 163.064 19.6 163.811 20.32C164.424 20.9333 164.958 21.68 165.411 22.56C165.864 23.4133 166.198 24.2533 166.411 25.08C166.864 26.5467 166.931 28.0267 166.611 29.52C166.291 31.0133 165.744 32.4 164.971 33.68C164.598 34.2667 164.131 34.8 163.571 35.28C163.038 35.7333 162.464 36.1067 161.851 36.4C161.051 36.7733 160.184 37.0267 159.251 37.16C158.318 37.32 157.411 37.36 156.531 37.28C154.931 37.2 153.518 36.8 152.291 36.08C151.091 35.36 150.118 34.44 149.371 33.32C148.651 32.2 148.171 30.9333 147.931 29.52C147.718 28.08 147.811 26.6133 148.211 25.12C148.638 23.52 149.251 22.2267 150.051 21.24C150.878 20.2267 151.851 19.4533 152.971 18.92ZM154.171 24.28C153.771 24.6533 153.464 25.12 153.251 25.68C153.038 26.24 152.904 26.8267 152.851 27.44C152.798 28.0267 152.838 28.6267 152.971 29.24C153.131 29.8267 153.371 30.36 153.691 30.84C153.958 31.24 154.438 31.5733 155.131 31.84C155.824 32.1067 156.544 32.2667 157.291 32.32C158.144 32.3733 158.891 32.1467 159.531 31.64C160.171 31.1067 160.651 30.4533 160.971 29.68C161.318 28.9067 161.478 28.0667 161.451 27.16C161.424 26.2533 161.184 25.4267 160.731 24.68C160.411 24.1467 159.958 23.76 159.371 23.52C158.811 23.2533 158.211 23.12 157.571 23.12C156.958 23.0933 156.344 23.1867 155.731 23.4C155.118 23.5867 154.598 23.88 154.171 24.28ZM175.158 18.92C176.038 18.4933 176.958 18.1867 177.918 18C178.878 17.8133 179.825 17.7733 180.758 17.88C181.718 17.9867 182.638 18.24 183.518 18.64C184.425 19.04 185.252 19.6 185.998 20.32C186.612 20.9333 187.145 21.68 187.598 22.56C188.052 23.4133 188.385 24.2533 188.598 25.08C189.052 26.5467 189.118 28.0267 188.798 29.52C188.478 31.0133 187.932 32.4 187.158 33.68C186.785 34.2667 186.318 34.8 185.758 35.28C185.225 35.7333 184.652 36.1067 184.038 36.4C183.238 36.7733 182.372 37.0267 181.438 37.16C180.505 37.32 179.598 37.36 178.718 37.28C177.118 37.2 175.705 36.8 174.478 36.08C173.278 35.36 172.305 34.44 171.558 33.32C170.838 32.2 170.358 30.9333 170.118 29.52C169.905 28.08 169.998 26.6133 170.398 25.12C170.825 23.52 171.438 22.2267 172.238 21.24C173.065 20.2267 174.038 19.4533 175.158 18.92ZM176.358 24.28C175.958 24.6533 175.652 25.12 175.438 25.68C175.225 26.24 175.092 26.8267 175.038 27.44C174.985 28.0267 175.025 28.6267 175.158 29.24C175.318 29.8267 175.558 30.36 175.878 30.84C176.145 31.24 176.625 31.5733 177.318 31.84C178.012 32.1067 178.732 32.2667 179.478 32.32C180.332 32.3733 181.078 32.1467 181.718 31.64C182.358 31.1067 182.838 30.4533 183.158 29.68C183.505 28.9067 183.665 28.0667 183.638 27.16C183.612 26.2533 183.372 25.4267 182.918 24.68C182.598 24.1467 182.145 23.76 181.558 23.52C180.998 23.2533 180.398 23.12 179.758 23.12C179.145 23.0933 178.532 23.1867 177.918 23.4C177.305 23.5867 176.785 23.88 176.358 24.28ZM197.936 33.8C197.909 33.9333 197.882 34.0667 197.856 34.2C197.856 34.3067 197.856 34.4267 197.856 34.56L197.616 35.4C197.562 35.5067 197.522 35.5733 197.496 35.6L197.376 35.84C197.242 36.1333 197.002 36.3733 196.656 36.56C196.016 36.88 195.336 36.96 194.616 36.8C194.162 36.7467 193.802 36.6133 193.536 36.4C193.269 36.2133 193.082 35.9867 192.976 35.72C192.869 35.4533 192.789 35.1867 192.736 34.92C192.656 34.6533 192.616 34.4133 192.616 34.2V11.8C192.616 11.6133 192.616 11.4533 192.616 11.32C192.642 11.16 192.669 11.0133 192.696 10.88C192.722 10.6933 192.749 10.5333 192.776 10.4C192.829 10.2667 192.882 10.12 192.936 9.96C193.016 9.69333 193.162 9.48 193.376 9.32C193.696 9.08 194.002 8.94667 194.296 8.92C194.482 8.86666 194.656 8.84 194.816 8.84C194.976 8.81333 195.162 8.8 195.376 8.8C195.749 8.8 196.176 8.90667 196.656 9.12C197.029 9.33333 197.296 9.62667 197.456 10C197.722 10.5333 197.856 11.0267 197.856 11.48C197.882 11.7467 197.896 12.1467 197.896 12.68C197.922 13.2133 197.936 13.6133 197.936 13.88V14.04C197.989 14.8933 198.016 15.72 198.016 16.52C198.016 17.2933 198.002 18.1467 197.976 19.08C197.976 19.9867 197.962 20.8667 197.936 21.72C197.936 22.5467 197.936 23.3733 197.936 24.2V32.6C197.936 32.7067 197.936 32.8133 197.936 32.92C197.962 33 197.976 33.0933 197.976 33.2C197.976 33.4667 197.962 33.6667 197.936 33.8Z" fill="#405A67"/>
</svg>
