<svg width="275" height="40" viewBox="0 0 275 40" fill="none" xmlns="http://www.w3.org/2000/svg">
<path d="M11.96 39V28.28L12.88 30.76L0.84 11H5.12L15.24 27.68H12.92L23.08 11H27.04L15.04 30.76L15.92 28.28V39H11.96ZM37.2356 39.24C35.1023 39.24 33.209 38.7733 31.5556 37.84C29.9023 36.9067 28.5956 35.6267 27.6356 34C26.6756 32.3467 26.1956 30.48 26.1956 28.4C26.1956 26.2933 26.6756 24.4267 27.6356 22.8C28.5956 21.1733 29.9023 19.9067 31.5556 19C33.209 18.0667 35.1023 17.6 37.2356 17.6C39.3423 17.6 41.2223 18.0667 42.8756 19C44.5556 19.9067 45.8623 21.1733 46.7956 22.8C47.7556 24.4 48.2356 26.2667 48.2356 28.4C48.2356 30.5067 47.7556 32.3733 46.7956 34C45.8623 35.6267 44.5556 36.9067 42.8756 37.84C41.2223 38.7733 39.3423 39.24 37.2356 39.24ZM37.2356 35.88C38.5956 35.88 39.809 35.5733 40.8756 34.96C41.969 34.3467 42.8223 33.48 43.4356 32.36C44.049 31.2133 44.3556 29.8933 44.3556 28.4C44.3556 26.88 44.049 25.5733 43.4356 24.48C42.8223 23.36 41.969 22.4933 40.8756 21.88C39.809 21.2667 38.5956 20.96 37.2356 20.96C35.8756 20.96 34.6623 21.2667 33.5956 21.88C32.529 22.4933 31.6756 23.36 31.0356 24.48C30.3956 25.5733 30.0756 26.88 30.0756 28.4C30.0756 29.8933 30.3956 31.2133 31.0356 32.36C31.6756 33.48 32.529 34.3467 33.5956 34.96C34.6623 35.5733 35.8756 35.88 37.2356 35.88ZM53.5463 39V17.8H57.2263V23.56L56.8663 22.12C57.4529 20.6533 58.4396 19.5333 59.8263 18.76C61.2129 17.9867 62.9196 17.6 64.9463 17.6V21.32C64.7863 21.2933 64.6263 21.28 64.4663 21.28C64.3329 21.28 64.1996 21.28 64.0663 21.28C62.0129 21.28 60.3863 21.8933 59.1863 23.12C57.9863 24.3467 57.3863 26.12 57.3863 28.44V39H53.5463ZM72.7991 33.88L72.8791 28.96L85.0791 17.8H89.7191L80.3591 27L78.2791 28.76L72.7991 33.88ZM69.6791 39V9.32H73.5191V39H69.6791ZM85.8791 39L77.5591 28.68L80.0391 25.6L90.5991 39H85.8791ZM111.15 39.24C109.39 39.24 107.71 39 106.11 38.52C104.536 38.04 103.296 37.4533 102.39 36.76L103.99 33.72C104.896 34.3333 106.016 34.8533 107.35 35.28C108.683 35.7067 110.043 35.92 111.43 35.92C113.216 35.92 114.496 35.6667 115.27 35.16C116.07 34.6533 116.47 33.9467 116.47 33.04C116.47 32.3733 116.23 31.8533 115.75 31.48C115.27 31.1067 114.63 30.8267 113.83 30.64C113.056 30.4533 112.19 30.2933 111.23 30.16C110.27 30 109.31 29.8133 108.35 29.6C107.39 29.36 106.51 29.04 105.71 28.64C104.91 28.2133 104.27 27.64 103.79 26.92C103.31 26.1733 103.07 25.1867 103.07 23.96C103.07 22.68 103.43 21.56 104.15 20.6C104.87 19.64 105.883 18.9067 107.19 18.4C108.523 17.8667 110.096 17.6 111.91 17.6C113.296 17.6 114.696 17.7733 116.11 18.12C117.55 18.44 118.723 18.9067 119.63 19.52L117.99 22.56C117.03 21.92 116.03 21.48 114.99 21.24C113.95 21 112.91 20.88 111.87 20.88C110.19 20.88 108.936 21.16 108.11 21.72C107.283 22.2533 106.87 22.9467 106.87 23.8C106.87 24.52 107.11 25.08 107.59 25.48C108.096 25.8533 108.736 26.1467 109.51 26.36C110.31 26.5733 111.19 26.76 112.15 26.92C113.11 27.0533 114.07 27.24 115.03 27.48C115.99 27.6933 116.856 28 117.63 28.4C118.43 28.8 119.07 29.36 119.55 30.08C120.056 30.8 120.31 31.76 120.31 32.96C120.31 34.24 119.936 35.3467 119.19 36.28C118.443 37.2133 117.39 37.9467 116.03 38.48C114.67 38.9867 113.043 39.24 111.15 39.24ZM134.349 39.24C132.189 39.24 130.255 38.7733 128.549 37.84C126.869 36.9067 125.549 35.6267 124.589 34C123.629 32.3733 123.149 30.5067 123.149 28.4C123.149 26.2933 123.629 24.4267 124.589 22.8C125.549 21.1733 126.869 19.9067 128.549 19C130.255 18.0667 132.189 17.6 134.349 17.6C136.269 17.6 137.975 17.9867 139.469 18.76C140.989 19.5067 142.162 20.6267 142.989 22.12L140.069 24C139.375 22.96 138.522 22.2 137.509 21.72C136.522 21.2133 135.455 20.96 134.309 20.96C132.922 20.96 131.682 21.2667 130.589 21.88C129.495 22.4933 128.629 23.36 127.989 24.48C127.349 25.5733 127.029 26.88 127.029 28.4C127.029 29.92 127.349 31.24 127.989 32.36C128.629 33.48 129.495 34.3467 130.589 34.96C131.682 35.5733 132.922 35.88 134.309 35.88C135.455 35.88 136.522 35.64 137.509 35.16C138.522 34.6533 139.375 33.88 140.069 32.84L142.989 34.68C142.162 36.1467 140.989 37.28 139.469 38.08C137.975 38.8533 136.269 39.24 134.349 39.24ZM159.007 17.6C160.74 17.6 162.26 17.9333 163.567 18.6C164.9 19.2667 165.94 20.28 166.687 21.64C167.434 23 167.807 24.72 167.807 26.8V39H163.967V27.24C163.967 25.1867 163.46 23.64 162.447 22.6C161.46 21.56 160.06 21.04 158.247 21.04C156.887 21.04 155.7 21.3067 154.687 21.84C153.674 22.3733 152.887 23.16 152.327 24.2C151.794 25.24 151.527 26.5333 151.527 28.08V39H147.687V9.32H151.527V23.52L150.767 22C151.46 20.6133 152.527 19.5333 153.967 18.76C155.407 17.9867 157.087 17.6 159.007 17.6ZM183.993 39.24C181.86 39.24 179.967 38.7733 178.313 37.84C176.66 36.9067 175.353 35.6267 174.393 34C173.433 32.3467 172.953 30.48 172.953 28.4C172.953 26.2933 173.433 24.4267 174.393 22.8C175.353 21.1733 176.66 19.9067 178.313 19C179.967 18.0667 181.86 17.6 183.993 17.6C186.1 17.6 187.98 18.0667 189.633 19C191.313 19.9067 192.62 21.1733 193.553 22.8C194.513 24.4 194.993 26.2667 194.993 28.4C194.993 30.5067 194.513 32.3733 193.553 34C192.62 35.6267 191.313 36.9067 189.633 37.84C187.98 38.7733 186.1 39.24 183.993 39.24ZM183.993 35.88C185.353 35.88 186.567 35.5733 187.633 34.96C188.727 34.3467 189.58 33.48 190.193 32.36C190.807 31.2133 191.113 29.8933 191.113 28.4C191.113 26.88 190.807 25.5733 190.193 24.48C189.58 23.36 188.727 22.4933 187.633 21.88C186.567 21.2667 185.353 20.96 183.993 20.96C182.633 20.96 181.42 21.2667 180.353 21.88C179.287 22.4933 178.433 23.36 177.793 24.48C177.153 25.5733 176.833 26.88 176.833 28.4C176.833 29.8933 177.153 31.2133 177.793 32.36C178.433 33.48 179.287 34.3467 180.353 34.96C181.42 35.5733 182.633 35.88 183.993 35.88ZM209.384 39.24C207.251 39.24 205.357 38.7733 203.704 37.84C202.051 36.9067 200.744 35.6267 199.784 34C198.824 32.3467 198.344 30.48 198.344 28.4C198.344 26.2933 198.824 24.4267 199.784 22.8C200.744 21.1733 202.051 19.9067 203.704 19C205.357 18.0667 207.251 17.6 209.384 17.6C211.491 17.6 213.371 18.0667 215.024 19C216.704 19.9067 218.011 21.1733 218.944 22.8C219.904 24.4 220.384 26.2667 220.384 28.4C220.384 30.5067 219.904 32.3733 218.944 34C218.011 35.6267 216.704 36.9067 215.024 37.84C213.371 38.7733 211.491 39.24 209.384 39.24ZM209.384 35.88C210.744 35.88 211.957 35.5733 213.024 34.96C214.117 34.3467 214.971 33.48 215.584 32.36C216.197 31.2133 216.504 29.8933 216.504 28.4C216.504 26.88 216.197 25.5733 215.584 24.48C214.971 23.36 214.117 22.4933 213.024 21.88C211.957 21.2667 210.744 20.96 209.384 20.96C208.024 20.96 206.811 21.2667 205.744 21.88C204.677 22.4933 203.824 23.36 203.184 24.48C202.544 25.5733 202.224 26.88 202.224 28.4C202.224 29.8933 202.544 31.2133 203.184 32.36C203.824 33.48 204.677 34.3467 205.744 34.96C206.811 35.5733 208.024 35.88 209.384 35.88ZM225.695 39V9.32H229.535V39H225.695Z" fill="#405A67"/>
</svg>
