<svg width="351" height="122" viewBox="0 0 351 122" fill="none" xmlns="http://www.w3.org/2000/svg">
<path d="M92.96 72V61.28L93.88 63.76L81.84 44H86.12L96.24 60.68H93.92L104.08 44H108.04L96.04 63.76L96.92 61.28V72H92.96ZM118.236 72.24C116.102 72.24 114.209 71.7733 112.556 70.84C110.902 69.9067 109.596 68.6267 108.636 67C107.676 65.3467 107.196 63.48 107.196 61.4C107.196 59.2933 107.676 57.4267 108.636 55.8C109.596 54.1733 110.902 52.9067 112.556 52C114.209 51.0667 116.102 50.6 118.236 50.6C120.342 50.6 122.222 51.0667 123.876 52C125.556 52.9067 126.862 54.1733 127.796 55.8C128.756 57.4 129.236 59.2667 129.236 61.4C129.236 63.5067 128.756 65.3733 127.796 67C126.862 68.6267 125.556 69.9067 123.876 70.84C122.222 71.7733 120.342 72.24 118.236 72.24ZM118.236 68.88C119.596 68.88 120.809 68.5733 121.876 67.96C122.969 67.3467 123.822 66.48 124.436 65.36C125.049 64.2133 125.356 62.8933 125.356 61.4C125.356 59.88 125.049 58.5733 124.436 57.48C123.822 56.36 122.969 55.4933 121.876 54.88C120.809 54.2667 119.596 53.96 118.236 53.96C116.876 53.96 115.662 54.2667 114.596 54.88C113.529 55.4933 112.676 56.36 112.036 57.48C111.396 58.5733 111.076 59.88 111.076 61.4C111.076 62.8933 111.396 64.2133 112.036 65.36C112.676 66.48 113.529 67.3467 114.596 67.96C115.662 68.5733 116.876 68.88 118.236 68.88ZM134.546 72V50.8H138.226V56.56L137.866 55.12C138.453 53.6533 139.44 52.5333 140.826 51.76C142.213 50.9867 143.92 50.6 145.946 50.6V54.32C145.786 54.2933 145.626 54.28 145.466 54.28C145.333 54.28 145.2 54.28 145.066 54.28C143.013 54.28 141.386 54.8933 140.186 56.12C138.986 57.3467 138.386 59.12 138.386 61.44V72H134.546ZM153.799 66.88L153.879 61.96L166.079 50.8H170.719L161.359 60L159.279 61.76L153.799 66.88ZM150.679 72V42.32H154.519V72H150.679ZM166.879 72L158.559 61.68L161.039 58.6L171.599 72H166.879ZM192.15 72.24C190.39 72.24 188.71 72 187.11 71.52C185.536 71.04 184.296 70.4533 183.39 69.76L184.99 66.72C185.896 67.3333 187.016 67.8533 188.35 68.28C189.683 68.7067 191.043 68.92 192.43 68.92C194.216 68.92 195.496 68.6667 196.27 68.16C197.07 67.6533 197.47 66.9467 197.47 66.04C197.47 65.3733 197.23 64.8533 196.75 64.48C196.27 64.1067 195.63 63.8267 194.83 63.64C194.056 63.4533 193.19 63.2933 192.23 63.16C191.27 63 190.31 62.8133 189.35 62.6C188.39 62.36 187.51 62.04 186.71 61.64C185.91 61.2133 185.27 60.64 184.79 59.92C184.31 59.1733 184.07 58.1867 184.07 56.96C184.07 55.68 184.43 54.56 185.15 53.6C185.87 52.64 186.883 51.9067 188.19 51.4C189.523 50.8667 191.096 50.6 192.91 50.6C194.296 50.6 195.696 50.7733 197.11 51.12C198.55 51.44 199.723 51.9067 200.63 52.52L198.99 55.56C198.03 54.92 197.03 54.48 195.99 54.24C194.95 54 193.91 53.88 192.87 53.88C191.19 53.88 189.936 54.16 189.11 54.72C188.283 55.2533 187.87 55.9467 187.87 56.8C187.87 57.52 188.11 58.08 188.59 58.48C189.096 58.8533 189.736 59.1467 190.51 59.36C191.31 59.5733 192.19 59.76 193.15 59.92C194.11 60.0533 195.07 60.24 196.03 60.48C196.99 60.6933 197.856 61 198.63 61.4C199.43 61.8 200.07 62.36 200.55 63.08C201.056 63.8 201.31 64.76 201.31 65.96C201.31 67.24 200.936 68.3467 200.19 69.28C199.443 70.2133 198.39 70.9467 197.03 71.48C195.67 71.9867 194.043 72.24 192.15 72.24ZM215.349 72.24C213.189 72.24 211.255 71.7733 209.549 70.84C207.869 69.9067 206.549 68.6267 205.589 67C204.629 65.3733 204.149 63.5067 204.149 61.4C204.149 59.2933 204.629 57.4267 205.589 55.8C206.549 54.1733 207.869 52.9067 209.549 52C211.255 51.0667 213.189 50.6 215.349 50.6C217.269 50.6 218.975 50.9867 220.469 51.76C221.989 52.5067 223.162 53.6267 223.989 55.12L221.069 57C220.375 55.96 219.522 55.2 218.509 54.72C217.522 54.2133 216.455 53.96 215.309 53.96C213.922 53.96 212.682 54.2667 211.589 54.88C210.495 55.4933 209.629 56.36 208.989 57.48C208.349 58.5733 208.029 59.88 208.029 61.4C208.029 62.92 208.349 64.24 208.989 65.36C209.629 66.48 210.495 67.3467 211.589 67.96C212.682 68.5733 213.922 68.88 215.309 68.88C216.455 68.88 217.522 68.64 218.509 68.16C219.522 67.6533 220.375 66.88 221.069 65.84L223.989 67.68C223.162 69.1467 221.989 70.28 220.469 71.08C218.975 71.8533 217.269 72.24 215.349 72.24ZM240.007 50.6C241.74 50.6 243.26 50.9333 244.567 51.6C245.9 52.2667 246.94 53.28 247.687 54.64C248.434 56 248.807 57.72 248.807 59.8V72H244.967V60.24C244.967 58.1867 244.46 56.64 243.447 55.6C242.46 54.56 241.06 54.04 239.247 54.04C237.887 54.04 236.7 54.3067 235.687 54.84C234.674 55.3733 233.887 56.16 233.327 57.2C232.794 58.24 232.527 59.5333 232.527 61.08V72H228.687V42.32H232.527V56.52L231.767 55C232.46 53.6133 233.527 52.5333 234.967 51.76C236.407 50.9867 238.087 50.6 240.007 50.6ZM264.993 72.24C262.86 72.24 260.967 71.7733 259.313 70.84C257.66 69.9067 256.353 68.6267 255.393 67C254.433 65.3467 253.953 63.48 253.953 61.4C253.953 59.2933 254.433 57.4267 255.393 55.8C256.353 54.1733 257.66 52.9067 259.313 52C260.967 51.0667 262.86 50.6 264.993 50.6C267.1 50.6 268.98 51.0667 270.633 52C272.313 52.9067 273.62 54.1733 274.553 55.8C275.513 57.4 275.993 59.2667 275.993 61.4C275.993 63.5067 275.513 65.3733 274.553 67C273.62 68.6267 272.313 69.9067 270.633 70.84C268.98 71.7733 267.1 72.24 264.993 72.24ZM264.993 68.88C266.353 68.88 267.567 68.5733 268.633 67.96C269.727 67.3467 270.58 66.48 271.193 65.36C271.807 64.2133 272.113 62.8933 272.113 61.4C272.113 59.88 271.807 58.5733 271.193 57.48C270.58 56.36 269.727 55.4933 268.633 54.88C267.567 54.2667 266.353 53.96 264.993 53.96C263.633 53.96 262.42 54.2667 261.353 54.88C260.287 55.4933 259.433 56.36 258.793 57.48C258.153 58.5733 257.833 59.88 257.833 61.4C257.833 62.8933 258.153 64.2133 258.793 65.36C259.433 66.48 260.287 67.3467 261.353 67.96C262.42 68.5733 263.633 68.88 264.993 68.88ZM290.384 72.24C288.251 72.24 286.357 71.7733 284.704 70.84C283.051 69.9067 281.744 68.6267 280.784 67C279.824 65.3467 279.344 63.48 279.344 61.4C279.344 59.2933 279.824 57.4267 280.784 55.8C281.744 54.1733 283.051 52.9067 284.704 52C286.357 51.0667 288.251 50.6 290.384 50.6C292.491 50.6 294.371 51.0667 296.024 52C297.704 52.9067 299.011 54.1733 299.944 55.8C300.904 57.4 301.384 59.2667 301.384 61.4C301.384 63.5067 300.904 65.3733 299.944 67C299.011 68.6267 297.704 69.9067 296.024 70.84C294.371 71.7733 292.491 72.24 290.384 72.24ZM290.384 68.88C291.744 68.88 292.957 68.5733 294.024 67.96C295.117 67.3467 295.971 66.48 296.584 65.36C297.197 64.2133 297.504 62.8933 297.504 61.4C297.504 59.88 297.197 58.5733 296.584 57.48C295.971 56.36 295.117 55.4933 294.024 54.88C292.957 54.2667 291.744 53.96 290.384 53.96C289.024 53.96 287.811 54.2667 286.744 54.88C285.677 55.4933 284.824 56.36 284.184 57.48C283.544 58.5733 283.224 59.88 283.224 61.4C283.224 62.8933 283.544 64.2133 284.184 65.36C284.824 66.48 285.677 67.3467 286.744 67.96C287.811 68.5733 289.024 68.88 290.384 68.88ZM306.695 72V42.32H310.535V72H306.695Z" fill="#405A67"/>
<path d="M80 60C80 71.0457 71.0457 80 60 80C48.9543 80 40 71.0457 40 60C40 48.9543 48.9543 40 60 40C71.0457 40 80 48.9543 80 60Z" fill="#384B59"/>
<path d="M60.56 46.7C60.5733 46.7667 60.5733 46.8333 60.56 46.9C60.56 46.9667 60.54 47.04 60.5 47.12C60.4467 47.3067 60.3867 47.4733 60.32 47.62C60.24 47.8067 60.14 47.9667 60.02 48.1C59.9667 48.18 59.9133 48.26 59.86 48.34C59.82 48.4067 59.78 48.4733 59.74 48.54L59.48 48.88L56.92 52.58L56.46 53.16V58.48C56.4333 58.5467 56.42 58.6133 56.42 58.68C56.42 58.7467 56.4133 58.82 56.4 58.9C56.3733 58.9667 56.3533 59.0333 56.34 59.1C56.3267 59.1533 56.3067 59.2133 56.28 59.28C56.2533 59.3333 56.24 59.3733 56.24 59.4C56.2267 59.4267 56.2133 59.4467 56.2 59.46C56.2 59.4733 56.1933 59.4933 56.18 59.52C56.1 59.6533 55.9867 59.7733 55.84 59.88C55.5467 60.0267 55.2133 60.06 54.84 59.98C54.6267 59.9533 54.4667 59.8867 54.36 59.78C54.2933 59.74 54.24 59.6933 54.2 59.64C54.16 59.5867 54.12 59.5267 54.08 59.46C54.0533 59.38 54.0267 59.3067 54 59.24C53.9733 59.1733 53.9533 59.1067 53.94 59.04C53.9133 58.9733 53.9 58.9133 53.9 58.86C53.9 58.7933 53.9 58.7333 53.9 58.68V53.22L53.46 52.54L50.86 48.86L50.64 48.5C50.56 48.38 50.46 48.24 50.34 48.08C50.2333 47.9333 50.14 47.7733 50.06 47.6C50.0067 47.52 49.96 47.44 49.92 47.36C49.8933 47.2667 49.8667 47.1733 49.84 47.08C49.8 46.9467 49.7933 46.8133 49.82 46.68C49.86 46.5067 49.94 46.36 50.06 46.24C50.1933 46.12 50.3333 46.0267 50.48 45.96C50.6667 45.8267 50.88 45.7733 51.12 45.8C51.2667 45.8 51.3933 45.8267 51.5 45.88C51.6067 45.9333 51.7133 45.9933 51.82 46.06C51.94 46.1533 52.0533 46.2533 52.16 46.36C52.28 46.4667 52.3867 46.58 52.48 46.7C52.5867 46.8333 52.6867 46.96 52.78 47.08C52.8733 47.1867 52.9667 47.3133 53.06 47.46L53.12 47.54C53.44 47.9667 53.74 48.38 54.02 48.78C54.3 49.1667 54.5933 49.5867 54.9 50.04C54.9267 50.0667 54.9667 50.12 55.02 50.2C55.0733 50.28 55.1333 50.3733 55.2 50.48C55.2533 50.3867 55.3 50.3067 55.34 50.24C55.3933 50.16 55.4333 50.1067 55.46 50.08C55.7667 49.6267 56.06 49.2 56.34 48.8C56.62 48.4 56.92 47.9867 57.24 47.56L57.28 47.48C57.3867 47.36 57.48 47.24 57.56 47.12C57.6533 46.9867 57.7533 46.8533 57.86 46.72C58.0333 46.48 58.2667 46.2733 58.56 46.1C58.7733 45.9533 58.9933 45.86 59.22 45.82C59.4733 45.7933 59.6933 45.8467 59.88 45.98C59.96 46.0333 60.0333 46.08 60.1 46.12C60.18 46.16 60.2467 46.2067 60.3 46.26C60.4067 46.38 60.4933 46.5267 60.56 46.7Z" fill="white"/>
<path d="M43.953 64.768C43.8643 64.712 43.764 64.6677 43.652 64.635C43.5447 64.6023 43.4327 64.572 43.316 64.544C43.204 64.516 43.0943 64.4857 42.987 64.453C42.8797 64.4157 42.7817 64.3643 42.693 64.299C42.5017 64.1543 42.3897 63.977 42.357 63.767C42.329 63.5523 42.3757 63.3377 42.497 63.123C42.5623 63.011 42.6487 62.92 42.756 62.85C42.8633 62.7753 42.98 62.7193 43.106 62.682C43.2367 62.64 43.3697 62.6167 43.505 62.612C43.6403 62.6073 43.7687 62.6143 43.89 62.633C43.9693 62.647 44.0533 62.668 44.142 62.696C44.2307 62.7193 44.3123 62.752 44.387 62.794C44.4663 62.836 44.5363 62.8897 44.597 62.955C44.6623 63.0157 44.709 63.0927 44.737 63.186C44.7557 63.2467 44.758 63.305 44.744 63.361C44.7347 63.417 44.7113 63.4637 44.674 63.501C44.6413 63.5383 44.597 63.5663 44.541 63.585C44.4897 63.6037 44.4337 63.6083 44.373 63.599C44.303 63.585 44.2377 63.564 44.177 63.536C44.1163 63.508 44.0557 63.4777 43.995 63.445C43.9343 63.4123 43.8713 63.3843 43.806 63.361C43.7453 63.3377 43.68 63.326 43.61 63.326C43.5027 63.3213 43.414 63.34 43.344 63.382C43.274 63.424 43.225 63.4753 43.197 63.536C43.1737 63.5967 43.176 63.662 43.204 63.732C43.2367 63.802 43.302 63.8627 43.4 63.914C43.4887 63.9607 43.5867 63.998 43.694 64.026C43.8013 64.054 43.9063 64.082 44.009 64.11C44.1163 64.138 44.219 64.1707 44.317 64.208C44.4197 64.2453 44.5107 64.2967 44.59 64.362C44.744 64.488 44.8373 64.635 44.87 64.803C44.9073 64.971 44.898 65.1367 44.842 65.3C44.786 65.4633 44.688 65.608 44.548 65.734C44.4127 65.86 44.2517 65.944 44.065 65.986C43.9297 66.014 43.7827 66.028 43.624 66.028C43.47 66.028 43.316 66.0117 43.162 65.979C43.0127 65.9463 42.868 65.895 42.728 65.825C42.5927 65.755 42.4783 65.6663 42.385 65.559C42.3197 65.4843 42.2847 65.4003 42.28 65.307C42.28 65.209 42.2987 65.125 42.336 65.055C42.378 64.9803 42.4363 64.929 42.511 64.901C42.5857 64.873 42.6697 64.8893 42.763 64.95C42.8377 65.0013 42.9263 65.0527 43.029 65.104C43.1317 65.1507 43.2343 65.188 43.337 65.216C43.4397 65.244 43.5377 65.258 43.631 65.258C43.729 65.258 43.813 65.237 43.883 65.195C43.9857 65.1297 44.0393 65.055 44.044 64.971C44.0487 64.8823 44.0183 64.8147 43.953 64.768ZM48.0627 63.305C48.1 63.3703 48.1187 63.4403 48.1187 63.515C48.1234 63.5897 48.107 63.6597 48.0697 63.725C48.0277 63.809 47.967 63.8673 47.8877 63.9C47.813 63.928 47.729 63.9303 47.6357 63.907C47.5937 63.8977 47.5564 63.8813 47.5237 63.858C47.491 63.8347 47.456 63.8113 47.4187 63.788C47.386 63.76 47.3464 63.7343 47.2997 63.711C47.2577 63.6877 47.2017 63.6713 47.1317 63.662C47.0617 63.6527 46.9847 63.6527 46.9007 63.662C46.8214 63.6713 46.749 63.69 46.6837 63.718C46.581 63.7693 46.4994 63.8487 46.4387 63.956C46.378 64.0587 46.3384 64.1707 46.3197 64.292C46.301 64.4087 46.3034 64.5277 46.3267 64.649C46.3547 64.7703 46.406 64.873 46.4807 64.957C46.5367 65.0223 46.609 65.076 46.6977 65.118C46.791 65.16 46.8797 65.1857 46.9637 65.195C47.043 65.2043 47.1224 65.2043 47.2017 65.195C47.281 65.181 47.358 65.1623 47.4327 65.139C47.4887 65.1157 47.5517 65.0853 47.6217 65.048C47.6917 65.006 47.7594 64.9803 47.8247 64.971C47.9087 64.971 47.974 64.9943 48.0207 65.041C48.0674 65.083 48.1 65.1367 48.1187 65.202C48.1374 65.2627 48.1397 65.328 48.1257 65.398C48.1164 65.468 48.0907 65.5287 48.0487 65.58C47.9927 65.65 47.9134 65.7177 47.8107 65.783C47.708 65.8437 47.61 65.888 47.5167 65.916C47.4047 65.9533 47.2787 65.9743 47.1387 65.979C47.0034 65.9837 46.875 65.979 46.7537 65.965C46.6977 65.9557 46.6394 65.944 46.5787 65.93C46.518 65.916 46.4597 65.8997 46.4037 65.881C46.1984 65.8063 46.0257 65.7013 45.8857 65.566C45.7504 65.426 45.6454 65.2697 45.5707 65.097C45.5007 64.9243 45.461 64.74 45.4517 64.544C45.4424 64.348 45.4657 64.1543 45.5217 63.963C45.573 63.781 45.636 63.627 45.7107 63.501C45.79 63.375 45.881 63.2723 45.9837 63.193C46.091 63.109 46.21 63.0437 46.3407 62.997C46.4714 62.9457 46.616 62.9013 46.7747 62.864C46.938 62.8313 47.1107 62.8313 47.2927 62.864C47.4747 62.8967 47.638 62.9573 47.7827 63.046C47.8947 63.1067 47.988 63.193 48.0627 63.305ZM51.4221 64.621C51.4268 64.7143 51.4291 64.8123 51.4291 64.915C51.4291 65.013 51.4268 65.104 51.4221 65.188C51.4174 65.314 51.4104 65.4307 51.4011 65.538C51.3918 65.6407 51.3731 65.7293 51.3451 65.804C51.3171 65.874 51.2728 65.9277 51.2121 65.965C51.1561 65.9977 51.0768 66.007 50.9741 65.993C50.8668 65.979 50.7898 65.9277 50.7431 65.839C50.6964 65.7503 50.6638 65.65 50.6451 65.538C50.6311 65.4213 50.6264 65.3047 50.6311 65.188C50.6358 65.0713 50.6358 64.9803 50.6311 64.915C50.6264 64.8123 50.6218 64.6957 50.6171 64.565C50.6171 64.4297 50.6031 64.3037 50.5751 64.187C50.5518 64.0657 50.5098 63.963 50.4491 63.879C50.3884 63.795 50.2974 63.7507 50.1761 63.746C50.0221 63.7367 49.9031 63.7483 49.8191 63.781C49.7398 63.8137 49.6814 63.8627 49.6441 63.928C49.6068 63.9887 49.5834 64.0633 49.5741 64.152C49.5694 64.2407 49.5601 64.3363 49.5461 64.439L49.5391 64.712V65.223C49.5391 65.307 49.5368 65.3957 49.5321 65.489C49.5321 65.5777 49.5181 65.6593 49.4901 65.734C49.4621 65.8087 49.4178 65.8717 49.3571 65.923C49.3011 65.9743 49.2171 66 49.1051 66C48.9651 66 48.8601 65.9557 48.7901 65.867C48.7248 65.7737 48.6921 65.6593 48.6921 65.524V61.499C48.6921 61.471 48.6921 61.4453 48.6921 61.422C48.6968 61.394 48.7014 61.366 48.7061 61.338C48.7154 61.31 48.7224 61.2843 48.7271 61.261C48.7318 61.233 48.7388 61.2073 48.7481 61.184C48.7621 61.1373 48.7854 61.1023 48.8181 61.079C48.8414 61.0557 48.8648 61.037 48.8881 61.023C48.9114 61.009 48.9371 60.9997 48.9651 60.995C48.9884 60.9903 49.0141 60.988 49.0421 60.988C49.0701 60.9833 49.0981 60.981 49.1261 60.981C49.1961 60.981 49.2638 61.002 49.3291 61.044C49.3571 61.0627 49.3828 61.0837 49.4061 61.107C49.4294 61.1257 49.4481 61.1537 49.4621 61.191C49.4994 61.2797 49.5181 61.3637 49.5181 61.443C49.5228 61.4663 49.5251 61.5013 49.5251 61.548C49.5298 61.59 49.5321 61.6343 49.5321 61.681C49.5321 61.7277 49.5321 61.7743 49.5321 61.821C49.5368 61.863 49.5391 61.8957 49.5391 61.919V61.954C49.5438 62.1033 49.5461 62.255 49.5461 62.409C49.5461 62.563 49.5461 62.7193 49.5461 62.878V62.997C49.7421 62.9317 49.9474 62.9013 50.1621 62.906C50.3768 62.906 50.5681 62.948 50.7361 63.032C50.9088 63.1207 51.0394 63.221 51.1281 63.333C51.2214 63.445 51.2891 63.5687 51.3311 63.704C51.3731 63.8393 51.3964 63.984 51.4011 64.138C51.4104 64.292 51.4174 64.453 51.4221 64.621ZM52.89 62.836C53.044 62.7613 53.205 62.7077 53.373 62.675C53.541 62.6423 53.7067 62.6353 53.87 62.654C54.038 62.6727 54.199 62.717 54.353 62.787C54.5117 62.857 54.6564 62.955 54.787 63.081C54.8944 63.1883 54.9877 63.319 55.067 63.473C55.1464 63.6223 55.2047 63.7693 55.242 63.914C55.3214 64.1707 55.333 64.4297 55.277 64.691C55.221 64.9523 55.1254 65.195 54.99 65.419C54.9247 65.5217 54.843 65.615 54.745 65.699C54.6517 65.7783 54.5514 65.8437 54.444 65.895C54.304 65.9603 54.1524 66.0047 53.989 66.028C53.8257 66.056 53.667 66.063 53.513 66.049C53.233 66.035 52.9857 65.965 52.771 65.839C52.561 65.713 52.3907 65.552 52.26 65.356C52.134 65.16 52.05 64.9383 52.008 64.691C51.9707 64.439 51.987 64.1823 52.057 63.921C52.1317 63.641 52.239 63.4147 52.379 63.242C52.5237 63.0647 52.694 62.9293 52.89 62.836ZM53.1 63.774C53.03 63.8393 52.9764 63.921 52.939 64.019C52.9017 64.117 52.8784 64.2197 52.869 64.327C52.8597 64.4297 52.8667 64.5347 52.89 64.642C52.918 64.7447 52.96 64.838 53.016 64.922C53.0627 64.992 53.1467 65.0503 53.268 65.097C53.3894 65.1437 53.5154 65.1717 53.646 65.181C53.7954 65.1903 53.926 65.1507 54.038 65.062C54.15 64.9687 54.234 64.8543 54.29 64.719C54.3507 64.5837 54.3787 64.4367 54.374 64.278C54.3694 64.1193 54.3274 63.9747 54.248 63.844C54.192 63.7507 54.1127 63.683 54.01 63.641C53.912 63.5943 53.807 63.571 53.695 63.571C53.5877 63.5663 53.4804 63.5827 53.373 63.62C53.2657 63.6527 53.1747 63.704 53.1 63.774ZM56.7728 62.836C56.9268 62.7613 57.0878 62.7077 57.2558 62.675C57.4238 62.6423 57.5895 62.6353 57.7528 62.654C57.9208 62.6727 58.0818 62.717 58.2358 62.787C58.3945 62.857 58.5392 62.955 58.6698 63.081C58.7772 63.1883 58.8705 63.319 58.9498 63.473C59.0292 63.6223 59.0875 63.7693 59.1248 63.914C59.2042 64.1707 59.2158 64.4297 59.1598 64.691C59.1038 64.9523 59.0082 65.195 58.8728 65.419C58.8075 65.5217 58.7258 65.615 58.6278 65.699C58.5345 65.7783 58.4342 65.8437 58.3268 65.895C58.1868 65.9603 58.0352 66.0047 57.8718 66.028C57.7085 66.056 57.5498 66.063 57.3958 66.049C57.1158 66.035 56.8685 65.965 56.6538 65.839C56.4438 65.713 56.2735 65.552 56.1428 65.356C56.0168 65.16 55.9328 64.9383 55.8908 64.691C55.8535 64.439 55.8698 64.1823 55.9398 63.921C56.0145 63.641 56.1218 63.4147 56.2618 63.242C56.4065 63.0647 56.5768 62.9293 56.7728 62.836ZM56.9828 63.774C56.9128 63.8393 56.8592 63.921 56.8218 64.019C56.7845 64.117 56.7612 64.2197 56.7518 64.327C56.7425 64.4297 56.7495 64.5347 56.7728 64.642C56.8008 64.7447 56.8428 64.838 56.8988 64.922C56.9455 64.992 57.0295 65.0503 57.1508 65.097C57.2722 65.1437 57.3982 65.1717 57.5288 65.181C57.6782 65.1903 57.8088 65.1507 57.9208 65.062C58.0328 64.9687 58.1168 64.8543 58.1728 64.719C58.2335 64.5837 58.2615 64.4367 58.2568 64.278C58.2522 64.1193 58.2102 63.9747 58.1308 63.844C58.0748 63.7507 57.9955 63.683 57.8928 63.641C57.7948 63.5943 57.6898 63.571 57.5778 63.571C57.4705 63.5663 57.3632 63.5827 57.2558 63.62C57.1485 63.6527 57.0575 63.704 56.9828 63.774ZM60.7589 65.44C60.7542 65.4633 60.7495 65.4867 60.7449 65.51C60.7449 65.5287 60.7449 65.5497 60.7449 65.573L60.7029 65.72C60.6935 65.7387 60.6865 65.7503 60.6819 65.755L60.6609 65.797C60.6375 65.8483 60.5955 65.8903 60.5349 65.923C60.4229 65.979 60.3039 65.993 60.1779 65.965C60.0985 65.9557 60.0355 65.9323 59.9889 65.895C59.9422 65.8623 59.9095 65.8227 59.8909 65.776C59.8722 65.7293 59.8582 65.6827 59.8489 65.636C59.8349 65.5893 59.8279 65.5473 59.8279 65.51V61.59C59.8279 61.5573 59.8279 61.5293 59.8279 61.506C59.8325 61.478 59.8372 61.4523 59.8419 61.429C59.8465 61.3963 59.8512 61.3683 59.8559 61.345C59.8652 61.3217 59.8745 61.296 59.8839 61.268C59.8979 61.2213 59.9235 61.184 59.9609 61.156C60.0169 61.114 60.0705 61.0907 60.1219 61.086C60.1545 61.0767 60.1849 61.072 60.2129 61.072C60.2409 61.0673 60.2735 61.065 60.3109 61.065C60.3762 61.065 60.4509 61.0837 60.5349 61.121C60.6002 61.1583 60.6469 61.2097 60.6749 61.275C60.7215 61.3683 60.7449 61.4547 60.7449 61.534C60.7495 61.5807 60.7519 61.6507 60.7519 61.744C60.7565 61.8373 60.7589 61.9073 60.7589 61.954V61.982C60.7682 62.1313 60.7729 62.276 60.7729 62.416C60.7729 62.5513 60.7705 62.7007 60.7659 62.864C60.7659 63.0227 60.7635 63.1767 60.7589 63.326C60.7589 63.4707 60.7589 63.6153 60.7589 63.76V65.23C60.7589 65.2487 60.7589 65.2673 60.7589 65.286C60.7635 65.3 60.7659 65.3163 60.7659 65.335C60.7659 65.3817 60.7635 65.4167 60.7589 65.44Z" fill="white"/>
<path d="M60.535 53.22C60.865 53.06 61.21 52.945 61.57 52.875C61.93 52.805 62.285 52.79 62.635 52.83C62.995 52.87 63.34 52.965 63.67 53.115C64.01 53.265 64.32 53.475 64.6 53.745C64.83 53.975 65.03 54.255 65.2 54.585C65.37 54.905 65.495 55.22 65.575 55.53C65.745 56.08 65.77 56.635 65.65 57.195C65.53 57.755 65.325 58.275 65.035 58.755C64.895 58.975 64.72 59.175 64.51 59.355C64.31 59.525 64.095 59.665 63.865 59.775C63.565 59.915 63.24 60.01 62.89 60.06C62.54 60.12 62.2 60.135 61.87 60.105C61.27 60.075 60.74 59.925 60.28 59.655C59.83 59.385 59.465 59.04 59.185 58.62C58.915 58.2 58.735 57.725 58.645 57.195C58.565 56.655 58.6 56.105 58.75 55.545C58.91 54.945 59.14 54.46 59.44 54.09C59.75 53.71 60.115 53.42 60.535 53.22ZM60.985 55.23C60.835 55.37 60.72 55.545 60.64 55.755C60.56 55.965 60.51 56.185 60.49 56.415C60.47 56.635 60.485 56.86 60.535 57.09C60.595 57.31 60.685 57.51 60.805 57.69C60.905 57.84 61.085 57.965 61.345 58.065C61.605 58.165 61.875 58.225 62.155 58.245C62.475 58.265 62.755 58.18 62.995 57.99C63.235 57.79 63.415 57.545 63.535 57.255C63.665 56.965 63.725 56.65 63.715 56.31C63.705 55.97 63.615 55.66 63.445 55.38C63.325 55.18 63.155 55.035 62.935 54.945C62.725 54.845 62.5 54.795 62.26 54.795C62.03 54.785 61.8 54.82 61.57 54.9C61.34 54.97 61.145 55.08 60.985 55.23Z" fill="white"/>
<path d="M63.574 63.044C63.574 62.932 63.574 62.806 63.574 62.666C63.574 62.5167 63.5787 62.3673 63.588 62.218C63.5973 62.0593 63.6113 61.91 63.63 61.77C63.658 61.6207 63.6953 61.49 63.742 61.378C63.8167 61.21 63.9333 61.098 64.092 61.042C64.2507 60.9767 64.4233 60.9487 64.61 60.958C64.806 60.958 64.96 60.9907 65.072 61.056C65.184 61.1213 65.268 61.21 65.324 61.322C65.38 61.4247 65.4127 61.546 65.422 61.686C65.4407 61.8167 65.45 61.9567 65.45 62.106C65.534 61.9567 65.646 61.8353 65.786 61.742C65.9353 61.6487 66.0847 61.574 66.234 61.518C66.3833 61.462 66.5187 61.4247 66.64 61.406C66.7613 61.378 66.8313 61.364 66.85 61.364C67.0833 61.3453 67.2933 61.3407 67.48 61.35C67.676 61.3593 67.8907 61.4013 68.124 61.476C68.2733 61.532 68.4273 61.6113 68.586 61.714C68.7447 61.8073 68.8847 61.9193 69.006 62.05C69.1273 62.1807 69.2067 62.3253 69.244 62.484C69.2907 62.6333 69.272 62.792 69.188 62.96C69.0573 63.1933 68.9127 63.31 68.754 63.31C68.5953 63.3007 68.4227 63.2727 68.236 63.226C68.1333 63.2073 68.012 63.1653 67.872 63.1C67.732 63.0347 67.6107 62.9927 67.508 62.974C67.1907 62.9273 66.9107 62.9507 66.668 63.044C66.4253 63.1373 66.2153 63.2493 66.038 63.38C65.8327 63.5387 65.6553 63.7207 65.506 63.926V65.942C65.506 66.194 65.5013 66.4553 65.492 66.726C65.492 66.9967 65.4547 67.244 65.38 67.468C65.3147 67.6827 65.198 67.86 65.03 68C64.8713 68.1307 64.638 68.1867 64.33 68.168C64.162 68.1587 64.0127 68.0793 63.882 67.93C63.7513 67.7713 63.672 67.6173 63.644 67.468C63.6253 67.328 63.6113 67.16 63.602 66.964C63.5927 66.768 63.5833 66.5627 63.574 66.348C63.574 66.1333 63.574 65.9187 63.574 65.704C63.574 65.48 63.574 65.2747 63.574 65.088V63.044Z" fill="white"/>
<path d="M73.824 64.32C74.0587 64.5653 74.2293 64.7467 74.336 64.864C74.4533 64.9707 74.5333 65.0507 74.576 65.104C74.6293 65.1573 74.6667 65.1893 74.688 65.2C74.7093 65.2107 74.7467 65.2427 74.8 65.296C74.8533 65.3493 74.9387 65.4347 75.056 65.552C75.1733 65.6587 75.3493 65.8347 75.584 66.08C75.776 66.272 75.9307 66.496 76.048 66.752C76.176 66.9973 76.1653 67.264 76.016 67.552C75.9307 67.7013 75.8347 67.808 75.728 67.872C75.6213 67.9253 75.504 67.9467 75.376 67.936C75.2587 67.9253 75.1307 67.888 74.992 67.824C74.864 67.76 74.736 67.68 74.608 67.584C74.3627 67.4027 74.128 67.1947 73.904 66.96C73.68 66.7147 73.4987 66.528 73.36 66.4C73.264 66.304 73.2053 66.24 73.184 66.208C73.1627 66.1867 73.1413 66.1707 73.12 66.16C73.0987 66.1387 73.0773 66.1173 73.056 66.096C72.9813 66.0213 72.9013 65.9467 72.816 65.872C72.7307 65.7973 72.6453 65.7173 72.56 65.632V66.256C72.56 66.3733 72.5653 66.4587 72.576 66.512C72.576 66.6187 72.5707 66.6987 72.56 66.752C72.528 66.8693 72.512 66.9813 72.512 67.088C72.5013 67.1413 72.4907 67.1947 72.48 67.248C72.4693 67.2907 72.4533 67.3387 72.432 67.392C72.4213 67.4133 72.4107 67.4293 72.4 67.44C72.4 67.4507 72.4 67.4667 72.4 67.488C72.3893 67.5093 72.3787 67.5253 72.368 67.536C72.368 67.5467 72.3627 67.5627 72.352 67.584C72.2987 67.6907 72.2133 67.792 72.096 67.888C71.8933 68.0053 71.6427 68.0373 71.344 67.984C71.184 67.952 71.0613 67.8933 70.976 67.808C70.88 67.744 70.816 67.6533 70.784 67.536C70.7627 67.4827 70.7413 67.4293 70.72 67.376C70.7093 67.312 70.6933 67.2533 70.672 67.2C70.6507 67.1467 70.64 67.0987 70.64 67.056C70.64 67.0027 70.64 66.96 70.64 66.928V57.824C70.64 57.76 70.64 57.696 70.64 57.632C70.64 57.568 70.6453 57.504 70.656 57.44C70.6667 57.376 70.6773 57.3173 70.688 57.264C70.7093 57.2 70.7307 57.1413 70.752 57.088C70.7947 56.9813 70.848 56.896 70.912 56.832C70.9653 56.7787 71.0187 56.7413 71.072 56.72C71.136 56.688 71.1947 56.6613 71.248 56.64C71.3013 56.6293 71.36 56.624 71.424 56.624C71.4987 56.6133 71.568 56.608 71.632 56.608C71.7813 56.608 71.9307 56.6507 72.08 56.736C72.2187 56.832 72.32 56.9547 72.384 57.104C72.4693 57.3067 72.512 57.504 72.512 57.696C72.5227 57.8027 72.5333 57.968 72.544 58.192C72.5547 58.4053 72.56 58.5653 72.56 58.672V58.736C72.5707 59.088 72.576 59.424 72.576 59.744C72.576 60.064 72.576 60.4107 72.576 60.784C72.5653 61.1573 72.56 61.5147 72.56 61.856C72.56 62.1867 72.56 62.5173 72.56 62.848V63.024C72.6453 62.9387 72.7307 62.8587 72.816 62.784C72.9013 62.7093 72.9813 62.6293 73.056 62.544C73.0987 62.512 73.1413 62.4747 73.184 62.432L73.36 62.256C73.4987 62.1173 73.68 61.9307 73.904 61.696C74.128 61.4507 74.3627 61.2373 74.608 61.056C74.8747 60.864 75.1307 60.7467 75.376 60.704C75.632 60.6613 75.8453 60.7893 76.016 61.088C76.1653 61.376 76.176 61.648 76.048 61.904C75.9307 62.1493 75.776 62.3787 75.584 62.592C75.3493 62.8373 75.1733 63.0187 75.056 63.136C74.9387 63.2427 74.8533 63.3227 74.8 63.376C74.7467 63.4187 74.7093 63.4453 74.688 63.456C74.6667 63.4667 74.6293 63.4987 74.576 63.552C74.5333 63.5947 74.4533 63.6747 74.336 63.792C74.2293 63.8987 74.0587 64.0747 73.824 64.32Z" fill="white"/>
<rect x="40" y="6" width="60.9219" height="30" rx="3" fill="#444444"/>
<rect x="40.5" y="6.5" width="59.9219" height="29" rx="2.5" stroke="white" stroke-opacity="0.0980392"/>
<path d="M51.3438 18C51.2969 17.6042 51.1068 17.2969 50.7734 17.0781C50.4401 16.8594 50.0313 16.75 49.5469 16.75C49.1927 16.75 48.8828 16.8073 48.6172 16.9219C48.3542 17.0365 48.1484 17.194 48 17.3945C47.8542 17.5951 47.7813 17.8229 47.7813 18.0781C47.7813 18.2917 47.832 18.4753 47.9336 18.6289C48.0378 18.7799 48.1706 18.9062 48.332 19.0078C48.4935 19.1068 48.6628 19.1888 48.8398 19.2539C49.0169 19.3164 49.1797 19.3672 49.3281 19.4062L50.1406 19.625C50.349 19.6797 50.5807 19.7552 50.8359 19.8516C51.0938 19.9479 51.3398 20.0794 51.5742 20.2461C51.8112 20.4102 52.0065 20.6211 52.1602 20.8789C52.3138 21.1367 52.3906 21.4531 52.3906 21.8281C52.3906 22.2604 52.2773 22.651 52.0508 23C51.8268 23.349 51.4987 23.6263 51.0664 23.832C50.6367 24.0378 50.1146 24.1406 49.5 24.1406C48.9271 24.1406 48.431 24.0482 48.0117 23.8633C47.5951 23.6784 47.2669 23.4206 47.0273 23.0898C46.7904 22.7591 46.6563 22.375 46.625 21.9375H47.625C47.651 22.2396 47.7526 22.4896 47.9297 22.6875C48.1094 22.8828 48.3359 23.0286 48.6094 23.125C48.8854 23.2187 49.1823 23.2656 49.5 23.2656C49.8698 23.2656 50.2018 23.2057 50.4961 23.0859C50.7904 22.9635 51.0234 22.7943 51.1953 22.5781C51.3672 22.3594 51.4531 22.1042 51.4531 21.8125C51.4531 21.5469 51.3789 21.3307 51.2305 21.1641C51.082 20.9974 50.8867 20.862 50.6445 20.7578C50.4023 20.6536 50.1406 20.5625 49.8594 20.4844L48.875 20.2031C48.25 20.0234 47.7552 19.7669 47.3906 19.4336C47.026 19.1003 46.8438 18.6641 46.8438 18.125C46.8438 17.6771 46.9648 17.2865 47.207 16.9531C47.4518 16.6172 47.7799 16.3568 48.1914 16.1719C48.6055 15.9844 49.0677 15.8906 49.5781 15.8906C50.0938 15.8906 50.5521 15.9831 50.9531 16.168C51.3542 16.3503 51.6719 16.6003 51.9062 16.918C52.1432 17.2357 52.2682 17.5964 52.2813 18H51.3438ZM56.374 24.125C55.7959 24.125 55.2972 23.9974 54.8779 23.7422C54.4613 23.4844 54.1396 23.125 53.9131 22.6641C53.6891 22.2005 53.5771 21.6615 53.5771 21.0469C53.5771 20.4323 53.6891 19.8906 53.9131 19.4219C54.1396 18.9505 54.4548 18.5833 54.8584 18.3203C55.2646 18.0547 55.7386 17.9219 56.2803 17.9219C56.5928 17.9219 56.9014 17.974 57.2061 18.0781C57.5107 18.1823 57.7881 18.3516 58.0381 18.5859C58.2881 18.8177 58.4873 19.125 58.6357 19.5078C58.7842 19.8906 58.8584 20.362 58.8584 20.9219V21.3125H54.2334V20.5156H57.9209C57.9209 20.1771 57.8532 19.875 57.7178 19.6094C57.585 19.3437 57.3949 19.1341 57.1475 18.9805C56.9027 18.8268 56.6136 18.75 56.2803 18.75C55.9131 18.75 55.5954 18.8411 55.3271 19.0234C55.0615 19.2031 54.8571 19.4375 54.7139 19.7266C54.5706 20.0156 54.499 20.3255 54.499 20.6562V21.1875C54.499 21.6406 54.5771 22.0247 54.7334 22.3398C54.8923 22.6523 55.1123 22.8906 55.3936 23.0547C55.6748 23.2161 56.0016 23.2969 56.374 23.2969C56.6162 23.2969 56.835 23.263 57.0303 23.1953C57.2282 23.125 57.3988 23.0208 57.542 22.8828C57.6852 22.7422 57.7959 22.5677 57.874 22.3594L58.7646 22.6094C58.6709 22.9115 58.5133 23.1771 58.292 23.4062C58.0706 23.6328 57.7972 23.8099 57.4717 23.9375C57.1462 24.0625 56.7803 24.125 56.374 24.125ZM62.6982 24.125C62.1357 24.125 61.6514 23.9922 61.2451 23.7266C60.8389 23.4609 60.5264 23.0951 60.3076 22.6289C60.0889 22.1628 59.9795 21.6302 59.9795 21.0312C59.9795 20.4219 60.0915 19.8841 60.3154 19.418C60.542 18.9492 60.8571 18.5833 61.2607 18.3203C61.667 18.0547 62.141 17.9219 62.6826 17.9219C63.1045 17.9219 63.4847 18 63.8232 18.1562C64.1618 18.3125 64.4391 18.5312 64.6553 18.8125C64.8714 19.0937 65.0055 19.4219 65.0576 19.7969H64.1357C64.0654 19.5234 63.9092 19.2812 63.667 19.0703C63.4274 18.8568 63.1045 18.75 62.6982 18.75C62.3389 18.75 62.0238 18.8437 61.7529 19.0312C61.4847 19.2161 61.2751 19.4779 61.124 19.8164C60.9756 20.1523 60.9014 20.5469 60.9014 21C60.9014 21.4635 60.9743 21.8672 61.1201 22.2109C61.2686 22.5547 61.4769 22.8216 61.7451 23.0117C62.016 23.2018 62.3337 23.2969 62.6982 23.2969C62.9378 23.2969 63.1553 23.2552 63.3506 23.1719C63.5459 23.0885 63.7113 22.9688 63.8467 22.8125C63.9821 22.6562 64.0785 22.4687 64.1357 22.25H65.0576C65.0055 22.6042 64.8766 22.9232 64.6709 23.207C64.4678 23.4883 64.1982 23.7122 63.8623 23.8789C63.529 24.043 63.141 24.125 62.6982 24.125ZM69.0146 18V18.7812H65.9053V18H69.0146ZM66.8115 16.5625H67.7334V22.2812C67.7334 22.5417 67.7712 22.737 67.8467 22.8672C67.9248 22.9948 68.0238 23.0807 68.1436 23.125C68.266 23.1667 68.3949 23.1875 68.5303 23.1875C68.6318 23.1875 68.7152 23.1823 68.7803 23.1719C68.8454 23.1589 68.8975 23.1484 68.9365 23.1406L69.124 23.9687C69.0615 23.9922 68.9743 24.0156 68.8623 24.0391C68.7503 24.0651 68.6084 24.0781 68.4365 24.0781C68.1761 24.0781 67.9209 24.0221 67.6709 23.9102C67.4235 23.7982 67.2178 23.6276 67.0537 23.3984C66.8923 23.1693 66.8115 22.8802 66.8115 22.5312V16.5625ZM70.4014 24V18H71.3232V24H70.4014ZM70.8701 17C70.6904 17 70.5355 16.9388 70.4053 16.8164C70.2777 16.694 70.2139 16.5469 70.2139 16.375C70.2139 16.2031 70.2777 16.056 70.4053 15.9336C70.5355 15.8112 70.6904 15.75 70.8701 15.75C71.0498 15.75 71.2035 15.8112 71.3311 15.9336C71.4613 16.056 71.5264 16.2031 71.5264 16.375C71.5264 16.5469 71.4613 16.694 71.3311 16.8164C71.2035 16.9388 71.0498 17 70.8701 17ZM75.4492 24.125C74.9076 24.125 74.4323 23.9961 74.0234 23.7383C73.6172 23.4805 73.2995 23.1198 73.0703 22.6562C72.8438 22.1927 72.7305 21.651 72.7305 21.0312C72.7305 20.4062 72.8438 19.8607 73.0703 19.3945C73.2995 18.9284 73.6172 18.5664 74.0234 18.3086C74.4323 18.0508 74.9076 17.9219 75.4492 17.9219C75.9909 17.9219 76.4648 18.0508 76.8711 18.3086C77.2799 18.5664 77.5977 18.9284 77.8242 19.3945C78.0534 19.8607 78.168 20.4062 78.168 21.0312C78.168 21.651 78.0534 22.1927 77.8242 22.6562C77.5977 23.1198 77.2799 23.4805 76.8711 23.7383C76.4648 23.9961 75.9909 24.125 75.4492 24.125ZM75.4492 23.2969C75.8607 23.2969 76.1992 23.1914 76.4648 22.9805C76.7305 22.7695 76.9271 22.4922 77.0547 22.1484C77.1823 21.8047 77.2461 21.4323 77.2461 21.0312C77.2461 20.6302 77.1823 20.2565 77.0547 19.9102C76.9271 19.5638 76.7305 19.2839 76.4648 19.0703C76.1992 18.8568 75.8607 18.75 75.4492 18.75C75.0378 18.75 74.6992 18.8568 74.4336 19.0703C74.168 19.2839 73.9714 19.5638 73.8438 19.9102C73.7161 20.2565 73.6523 20.6302 73.6523 21.0312C73.6523 21.4323 73.7161 21.8047 73.8438 22.1484C73.9714 22.4922 74.168 22.7695 74.4336 22.9805C74.6992 23.1914 75.0378 23.2969 75.4492 23.2969ZM80.4971 20.3906V24H79.5752V18H80.4658V18.9375H80.5439C80.6846 18.6328 80.8981 18.388 81.1846 18.2031C81.471 18.0156 81.8408 17.9219 82.2939 17.9219C82.7002 17.9219 83.0557 18.0052 83.3604 18.1719C83.665 18.3359 83.902 18.5859 84.0713 18.9219C84.2406 19.2552 84.3252 19.6771 84.3252 20.1875V24H83.4033V20.25C83.4033 19.7786 83.2809 19.4115 83.0361 19.1484C82.7913 18.8828 82.4554 18.75 82.0283 18.75C81.734 18.75 81.471 18.8138 81.2393 18.9414C81.0101 19.069 80.8291 19.2552 80.6963 19.5C80.5635 19.7448 80.4971 20.0417 80.4971 20.3906ZM89.0879 24V23.2969L91.7285 20.4062C92.0384 20.0677 92.2936 19.7734 92.4941 19.5234C92.6947 19.2708 92.8431 19.0339 92.9395 18.8125C93.0384 18.5885 93.0879 18.3542 93.0879 18.1094C93.0879 17.8281 93.0202 17.5846 92.8848 17.3789C92.752 17.1732 92.5697 17.0143 92.3379 16.9023C92.1061 16.7904 91.8457 16.7344 91.5566 16.7344C91.2493 16.7344 90.9811 16.7982 90.752 16.9258C90.5254 17.0508 90.3496 17.2266 90.2246 17.4531C90.1022 17.6797 90.041 17.9453 90.041 18.25H89.1191C89.1191 17.7812 89.2272 17.3698 89.4434 17.0156C89.6595 16.6615 89.9538 16.3854 90.3262 16.1875C90.7012 15.9896 91.1217 15.8906 91.5879 15.8906C92.0566 15.8906 92.472 15.9896 92.834 16.1875C93.196 16.3854 93.4798 16.6523 93.6855 16.9883C93.8913 17.3242 93.9941 17.6979 93.9941 18.1094C93.9941 18.4036 93.9408 18.6914 93.834 18.9727C93.7298 19.2513 93.5475 19.5625 93.2871 19.9062C93.0293 20.2474 92.6712 20.6641 92.2129 21.1562L90.416 23.0781V23.1406H94.1348V24H89.0879Z" fill="white"/>
</svg>
